<svg width="795" height="581" viewBox="0 0 795 581" fill="none" xmlns="http://www.w3.org/2000/svg">
<g opacity="0.4">
<path d="M270.433 111.322C272.38 173.836 218.062 187.027 195.463 225.846C189.705 235.739 178.848 239.874 167.396 240.276C162.41 240.453 158.051 240.292 153.402 239.182C132.058 234.066 118.949 213.845 130.385 195.119C144.845 171.455 166.077 151.314 164.356 119.236C164.308 118.352 164.308 117.467 164.34 116.582C165.241 91.5826 148.384 68.0311 122.906 68.1276C109.845 67.0659 99.8087 80.5951 108.253 90.6335C110.65 93.0466 113.674 94.3335 116.81 94.6392C134.069 96.3605 147.017 111.563 143.639 128.583C140.889 142.45 133.184 154.885 119.898 161.369C118.821 161.899 117.679 162.334 116.52 162.688C39.6686 186.802 8.78636 80.9812 57.7798 32.3177C93.021 -6.30742 156.121 -6.22698 202.798 11.2919C244.634 26.4942 271.817 65.972 270.417 111.322H270.433ZM102.447 309.177C104.328 238.49 207.639 238.506 209.505 309.177C208.604 379.606 103.331 379.606 102.447 309.177Z" fill="#FFCB77"/>
<path fill-rule="evenodd" clip-rule="evenodd" d="M469.028 239.34C447.939 255.942 424.683 281.773 411.15 303.65C397.544 325.636 392.443 343.916 384.006 374.208L382.639 379.086C381.875 381.797 381.11 384.315 380.271 386.699C414.465 381.495 446.236 361.827 465.736 330.035C484.643 299.2 488.161 263.26 478.443 231.163C475.641 233.944 472.544 236.586 469.031 239.352L469.028 239.34ZM369.19 375.325L370.545 370.451L370.558 370.403L370.558 370.403C379.326 338.957 384.621 319.963 399.269 296.294C413.799 272.814 437.794 246.142 460.393 228.365C465.404 224.426 469.375 220.971 472.931 216.446C463.261 194.938 447.25 176.004 425.628 162.75C403.836 149.388 379.49 143.714 355.766 144.969C355.114 147.38 354.566 149.891 354.028 152.632C348.425 180.84 335.53 214.306 321.19 237.916C306.732 261.711 292.197 275.052 268.12 297.145L264.395 300.559C258.775 305.728 254.77 310.014 251.168 316.429C260.838 337.936 276.849 356.871 298.47 370.124C319.128 382.801 342.081 388.552 364.643 388.046C366.538 384.133 367.852 380.118 369.202 375.322L369.19 375.325ZM258.674 286.836L254.94 290.266L254.961 290.248C251.186 293.714 248.024 296.926 245.259 300.327C236.05 268.595 239.737 233.239 258.378 202.848C277.33 171.936 307.896 152.474 341.011 146.647C340.974 146.819 340.937 146.99 340.9 147.162C340.706 148.059 340.509 148.969 340.328 149.902C335.094 176.225 322.607 208.669 309.257 230.651C295.851 252.714 281.887 265.53 258.811 286.711L258.674 286.836Z" fill="#F6B7CC"/>
<path d="M303.547 419.348C302.174 386.212 271.623 360.563 235.325 362.07C207.201 363.234 183.88 380.379 175.437 403.442L126.394 405.476C116.063 383.185 91.4069 368.05 63.2825 369.215C26.9843 370.722 -1.33609 398.81 0.0486725 431.958C0.551113 444.152 5.02404 455.328 12.2665 464.507C5.80831 474.261 2.29122 485.768 2.79366 497.962C4.16619 531.098 34.717 556.747 71.0152 555.24C99.1395 554.076 122.46 536.931 130.903 513.868L179.946 511.834C190.277 534.125 214.933 549.26 243.058 548.095C279.356 546.588 307.676 518.5 306.292 485.352C305.789 473.158 301.316 461.982 294.074 452.803C300.532 443.049 304.049 431.542 303.547 419.348Z" fill="#1D7874"/>
<path d="M533.966 309.677C535.929 307.661 539.168 307.661 541.13 309.677L729.81 503.445C732.895 506.613 730.65 511.933 726.228 511.933H348.869C344.446 511.933 342.201 506.613 345.286 503.445L533.966 309.677Z" fill="#FFCB77"/>
<path d="M603.575 295.613C588.204 269.406 565.602 248.355 538.363 234.873C528.28 229.881 518.286 223.253 510.136 213.849C508.28 211.71 473.572 179.745 517.966 133.657C561.03 88.9631 643.43 75.4996 699.365 124.54L699.405 124.497C699.886 124.946 700.351 125.395 700.816 125.844C701.289 126.284 701.778 126.708 702.259 127.156L702.22 127.199C709.491 134.397 715.614 142.166 720.667 150.357C721.178 151.18 721.15 152.226 720.607 153.029L703.735 178.171C702.681 179.744 703.721 181.879 705.62 182.008L733.319 183.886C734.383 183.963 735.291 184.698 735.549 185.742C746.564 229.716 734.001 277.683 705.984 308.796C663.169 356.339 628.822 323.985 626.549 322.294C616.59 314.832 609.27 305.333 603.576 295.629L603.575 295.613ZM615.371 185.591L626.316 180.868L631.042 191.814C631.674 193.27 633.38 193.944 634.827 193.321L639.098 191.48C640.553 190.849 641.227 189.143 640.604 187.695L635.878 176.749L646.823 172.026C648.278 171.395 648.952 169.689 648.329 168.241L646.487 163.971C645.855 162.515 644.149 161.84 642.701 162.463L631.756 167.186L627.03 156.24C626.398 154.784 624.692 154.11 623.245 154.733L618.974 156.574C617.519 157.205 616.845 158.911 617.468 160.359L622.194 171.305L611.249 176.028C609.794 176.659 609.12 178.365 609.743 179.813L611.586 184.083C612.217 185.539 613.923 186.213 615.371 185.591Z" fill="#1D7874"/>
</g>
</svg>
