<svg width="19" height="19" viewBox="0 0 19 19" fill="none" xmlns="http://www.w3.org/2000/svg">
<path d="M13.8289 0V1.47739H16.461L13.9678 3.99339C13.0767 3.32051 11.9907 2.95595 10.874 2.95478C9.49261 2.95478 8.2028 3.50142 7.22621 4.47871C6.74348 4.9556 6.36023 5.52357 6.09868 6.14969C5.83713 6.77582 5.70248 7.44763 5.70255 8.12618C5.70262 8.80473 5.8374 9.47652 6.09908 10.1026C6.36075 10.7287 6.74412 11.2965 7.22694 11.7733C7.86964 12.416 8.63495 12.8777 9.48892 13.1119C9.57313 13.0476 9.66769 12.9804 9.74304 12.905C10.0527 12.5901 10.2752 12.2001 10.3887 11.7733C9.58445 11.6741 8.83669 11.3081 8.26485 10.734C7.5675 10.0374 7.18041 9.11255 7.18041 8.12566C7.18041 7.13876 7.56824 6.21539 8.26633 5.51806C8.96221 4.81851 9.88709 4.43218 10.874 4.43218C11.861 4.43218 12.7851 4.81999 13.4817 5.51806C13.8264 5.85913 14.0999 6.26528 14.2863 6.71291C14.4727 7.16055 14.5684 7.64076 14.5677 8.12566C14.5677 8.76463 14.3867 9.35928 14.083 9.90296C14.154 10.2841 14.1983 10.6845 14.1983 11.0804C14.1983 11.4483 14.1673 11.8117 14.1059 12.1663C14.2537 12.0459 14.3852 11.9093 14.5219 11.7733C15.4984 10.7953 16.0451 9.50702 16.0451 8.12566C16.0451 6.99545 15.6728 5.92139 15.0065 5.032L17.5226 2.53964V5.17087H19V0H13.8289ZM9.30424 6.09424C9.22002 6.15851 9.12547 6.22573 9.05012 6.30108C8.73099 6.62167 8.52267 7.01022 8.40447 7.4335C9.20968 7.53691 9.94471 7.88853 10.5283 8.4721C11.2264 9.16869 11.6142 10.0935 11.6142 11.0797C11.6142 12.0659 11.2264 12.99 10.5283 13.6873C9.83095 14.3876 8.90607 14.7739 7.91913 14.7739C6.93219 14.7739 6.00805 14.3861 5.31143 13.688C4.96648 13.3472 4.69282 12.9411 4.50638 12.4934C4.31995 12.0457 4.22447 11.5654 4.22551 11.0804C4.22551 10.4415 4.40649 9.84682 4.71011 9.30314C4.63594 8.91497 4.59736 8.52084 4.59487 8.12566C4.59487 7.75779 4.62589 7.39435 4.68721 7.03977C4.53946 7.16018 4.40871 7.29684 4.27131 7.4335C3.29619 8.40932 2.74806 9.69908 2.74806 11.0804C2.74806 12.2106 3.12037 13.2847 3.7867 14.1741L2.54121 15.4203L1.06376 13.9429L0 14.9815L1.47745 16.4589L0 17.9363L1.06376 19L2.54121 17.5226L4.01866 19L5.05657 17.9363L3.57912 16.4589L4.82609 15.2134C5.71637 15.8874 6.80253 16.2518 7.91913 16.2513C9.30054 16.2513 10.5904 15.7047 11.567 14.7274C12.5435 13.7516 13.0902 12.4618 13.0902 11.0804C13.0902 9.69908 12.5435 8.41079 11.5662 7.43276C10.9235 6.79009 10.1582 6.32841 9.30424 6.09424Z" fill="#FFCB77"/>
</svg>
