<svg width="94" height="34" viewBox="0 0 94 34" fill="none" xmlns="http://www.w3.org/2000/svg">
<path d="M27.9859 12.0549C29.828 13.1826 32.0814 15.2986 33.0141 17.2285C33.9467 19.1585 34.1263 21.5012 33.1937 23.4311C32.568 24.7275 31.4674 25.7913 30.1408 26.3784C28.681 27.0236 26.8331 27.0643 25.634 25.8901C25.0315 25.2971 24.7187 24.4484 24.8809 23.623C25.13 22.3731 26.2538 21.85 27.2965 21.414C28.1133 21.071 28.9765 20.699 29.4689 19.9665C29.9612 19.2341 29.8222 18.0424 28.9938 17.7343C29.0634 16.3449 27.9859 14.9847 26.6014 14.7173C26.7752 13.979 26.2886 12.4095 25.9873 12.6594C25.2922 13.2407 25.0489 13.4326 24.823 14.4034C22.8882 14.508 21.1619 15.8101 20.1887 17.4669C19.0881 19.3329 18.8332 21.5884 18.8737 23.7276C18.8853 24.2566 19.0881 24.774 19.4878 25.1227C20.461 25.954 21.6427 25.1111 22.1293 24.1578C23.0967 22.2743 22.4016 19.7224 20.6058 18.5714C18.781 17.4087 16.3133 17.7459 14.3958 18.7516C13.608 19.1643 12.8434 19.6933 11.9628 19.8444C11.0128 20.013 10.028 19.7282 9.07799 19.9026C7.57764 20.1758 6.477 21.6407 6.40169 23.1463C6.32639 24.6519 7.15476 26.1052 8.3423 27.0469C9.52984 27.9886 11.0418 28.4595 12.5537 28.6513C14.7434 28.9245 17.0084 28.6339 19.0533 27.8142C20.3277 27.3027 21.7701 26.5877 22.9693 27.4015C23.5659 27.8084 23.8903 28.506 23.8845 29.221C23.873 30.6568 22.8071 31.7323 21.5906 32.3368C20.6174 32.8193 19.5862 33.3076 18.5319 33.575C17.4487 33.8482 16.3133 33.9877 15.1895 33.9994C12.1656 34.0168 11.7369 33.6506 10.0628 33.1797C9.1533 32.9239 8.22644 32.6624 7.44441 32.145C6.66237 31.6276 5.50959 30.715 4.95348 29.9709C3.18086 27.5933 3.10556 26.204 2.89122 24.0124C2.67689 21.8209 3.49947 19.5247 4.86079 17.7808C6.04833 16.2577 7.65295 14.9265 9.36184 14.0197C11.2156 13.0373 13.3242 12.4327 15.427 12.4792C16.3422 12.4967 17.3386 12.7582 17.8136 13.5663C18.1033 14.0604 18.0801 14.6998 17.692 15.1242C17.3039 15.5485 16.4813 15.6357 16.0063 15.5137C15.1953 15.3044 14.7376 14.7638 14.1525 14.1708C13.1967 13.2059 12.6754 12.02 12.4436 10.7702C11.8354 7.44506 13.0461 3.59096 16.1279 2.12606C16.1453 2.11443 16.1742 2.1028 16.2148 2.09118C17.5298 1.56218 18.9896 1.46917 20.3683 1.81796C20.4725 1.84703 20.5652 1.87028 20.6405 1.89353C24.348 3.06197 25.9816 5.87552 25.269 9.89819C25.2053 10.2586 24.8462 11.1655 24.7071 11.5084" fill="#FFCB77"/>
<path d="M26.478 11.4169C28.3458 12.5417 30.6306 14.6522 31.5762 16.5772C32.5218 18.5022 32.7039 20.8389 31.7583 22.7639C31.1239 24.0568 30.008 25.1179 28.663 25.7035C27.1829 26.3471 25.3092 26.3877 24.0934 25.2165C23.4826 24.6251 23.1654 23.7785 23.3299 22.9552C23.5824 21.7086 24.7219 21.1868 25.7791 20.7519C26.6073 20.4098 27.4824 20.0387 27.9816 19.3082C28.4809 18.5776 28.3399 17.389 27.5 17.0817C27.5705 15.6959 26.478 14.3391 25.0743 14.0724C25.2505 13.3361 24.7571 11.7706 24.4517 12.0199C23.7469 12.5997 23.5002 12.791 23.2711 13.7593C21.3094 13.8637 19.5591 15.1625 18.5724 16.815C17.4564 18.6762 17.198 20.9258 17.2391 23.0596C17.2509 23.5872 17.4564 24.1032 17.8617 24.4511C18.8484 25.2802 20.0466 24.4395 20.54 23.4886C21.5209 21.61 20.816 19.0646 18.9953 17.9166C17.1451 16.757 14.643 17.0933 12.6989 18.0963C11.9001 18.508 11.1249 19.0356 10.2321 19.1864C9.26884 19.3545 8.27036 19.0704 7.30711 19.2444C5.78589 19.5169 4.66993 20.978 4.59358 22.4797C4.51722 23.9815 5.35713 25.431 6.56118 26.3703C7.76524 27.3096 9.29821 27.7792 10.8312 27.9706C13.0513 28.2431 15.3479 27.9532 17.4212 27.1357C18.7133 26.6254 20.1758 25.9122 21.3916 26.724C21.9966 27.1299 22.3255 27.8256 22.3196 28.5388C22.3079 29.9709 21.2272 31.0436 19.9938 31.6466C19.007 32.1279 17.9615 32.6149 16.8926 32.8816C15.7942 33.1541 14.643 33.2933 13.5036 33.3049C10.4377 33.3223 10.003 32.957 8.3056 32.4873C7.38347 32.2322 6.44371 31.9713 5.6508 31.4553C4.85788 30.9392 3.68907 30.0289 3.12522 29.2868C1.32794 26.9153 1.25159 25.5296 1.03427 23.3437C0.816952 21.1578 1.65098 18.8675 3.03124 17.1281C4.2353 15.6089 5.86224 14.2812 7.59491 13.3767C9.47441 12.3968 11.6123 11.7938 13.7444 11.8401C14.6724 11.8575 15.6826 12.1185 16.1643 12.9244C16.4579 13.4172 16.4344 14.055 16.0409 14.4783C15.6474 14.9016 14.8134 14.9885 14.3318 14.8668C13.5095 14.658 13.0455 14.1188 12.4523 13.5274C11.4831 12.5649 10.9545 11.3821 10.7196 10.1355C10.1029 6.81895 11.3304 2.97478 14.4551 1.51365C14.4727 1.50205 14.5021 1.49045 14.5432 1.47886C15.8765 0.951226 17.3566 0.858456 18.7545 1.20634C18.8602 1.23534 18.9542 1.25853 19.0305 1.28172C22.7895 2.44715 24.4458 5.25345 23.7234 9.26577C23.6588 9.62525 23.2946 10.5298 23.1537 10.8719" stroke="#050505" stroke-width="0.568703" stroke-linecap="round" stroke-linejoin="round"/>
<path d="M25.4739 16.7976C25.5355 16.7976 25.5855 16.7482 25.5855 16.6874C25.5855 16.6266 25.5355 16.5772 25.4739 16.5772C25.4123 16.5772 25.3623 16.6266 25.3623 16.6874C25.3623 16.7482 25.4123 16.7976 25.4739 16.7976Z" fill="black" stroke="#050505" stroke-width="0.433566" stroke-linecap="round" stroke-linejoin="round"/>
<path d="M12.9633 20.7345C13.0476 20.7345 13.116 20.6696 13.116 20.5895C13.116 20.5095 13.0476 20.4446 12.9633 20.4446C12.8789 20.4446 12.8105 20.5095 12.8105 20.5895C12.8105 20.6696 12.8789 20.7345 12.9633 20.7345Z" fill="black" stroke="#050505" stroke-width="0.568703" stroke-linecap="round" stroke-linejoin="round"/>
<path d="M6.05025 21.6158C6.36741 21.6448 7.17795 21.1926 7.09572 20.8853C6.97238 20.4214 5.32194 20.2533 5.16923 20.7055C5.06938 21.007 5.73895 21.581 6.05612 21.6158H6.05025Z" fill="black" stroke="#050505" stroke-width="0.568703" stroke-linecap="round" stroke-linejoin="round"/>
<path d="M27.6234 18.0905C27.7526 18.1021 28.0404 18.0326 28.0111 17.9108C27.9641 17.7253 27.3004 17.6557 27.2416 17.8412C27.2005 17.963 27.5001 18.0789 27.6234 18.0905Z" fill="black" stroke="#050505" stroke-width="0.23086" stroke-linecap="round" stroke-linejoin="round"/>
<path d="M4.89307 23.1291C5.45104 22.8682 5.83869 22.2942 5.97965 21.6506C5.86806 22.9204 6.75495 24.2134 8.00599 24.6019" stroke="#050505" stroke-width="0.568703" stroke-linecap="round" stroke-linejoin="round"/>
<path d="M25.186 13.7072C25.186 13.7072 26.0201 12.6577 26.3196 12.8142C26.3196 12.8142 26.3431 13.8579 26.1493 14.3681" fill="black"/>
<path d="M25.186 13.7072C25.186 13.7072 26.0201 12.6577 26.3196 12.8142C26.3196 12.8142 26.3431 13.8579 26.1493 14.3681" stroke="#050505" stroke-width="0.484242" stroke-linecap="round" stroke-linejoin="round"/>
<path d="M18.2025 17.5223L17.4507 19.9749L17.2393 22.5087L17.5917 24.1554L18.4374 24.7468L19.5475 24.6019L20.546 23.4828L20.9924 21.6158L20.5989 19.7952L19.712 18.4906L18.6783 17.7311L18.2025 17.5223Z" fill="#050505"/>
<path d="M39.46 28V13.2H40.46V20L40.22 20.38C40.3667 19.7533 40.6467 19.22 41.06 18.78C41.4733 18.3267 41.9533 17.98 42.5 17.74C43.06 17.5 43.62 17.38 44.18 17.38C44.98 17.38 45.64 17.5333 46.16 17.84C46.6933 18.1467 47.0867 18.62 47.34 19.26C47.5933 19.9 47.72 20.7133 47.72 21.7V28H46.72V21.74C46.72 20.9667 46.62 20.3333 46.42 19.84C46.22 19.3333 45.9133 18.96 45.5 18.72C45.1 18.4667 44.5867 18.34 43.96 18.34C43.4667 18.34 43.0067 18.4333 42.58 18.62C42.1533 18.7933 41.78 19.0333 41.46 19.34C41.1533 19.6467 40.9067 20 40.72 20.4C40.5467 20.7867 40.46 21.2 40.46 21.64V28H39.96C39.9467 28 39.9 28 39.82 28C39.7533 28 39.6333 28 39.46 28ZM54.7523 28.2C53.8057 28.2 52.959 27.9667 52.2123 27.5C51.4657 27.0333 50.8723 26.3933 50.4323 25.58C50.0057 24.7667 49.7923 23.84 49.7923 22.8C49.7923 21.7467 50.0123 20.8133 50.4523 20C50.9057 19.1867 51.5057 18.5467 52.2523 18.08C52.999 17.6133 53.8323 17.38 54.7523 17.38C55.2857 17.38 55.7923 17.46 56.2723 17.62C56.7523 17.78 57.1857 18.0067 57.5723 18.3C57.959 18.58 58.2923 18.9133 58.5723 19.3C58.8523 19.6867 59.0523 20.1067 59.1723 20.56L58.7723 20.3L58.8723 17.6H59.8323V28H58.8323V25.4L59.1723 25.02C59.0523 25.46 58.8523 25.8733 58.5723 26.26C58.2923 26.6467 57.959 26.9867 57.5723 27.28C57.1857 27.5733 56.7523 27.8 56.2723 27.96C55.7923 28.12 55.2857 28.2 54.7523 28.2ZM54.8923 27.2C55.6523 27.2 56.3323 27.0133 56.9323 26.64C57.5457 26.2533 58.0257 25.7333 58.3723 25.08C58.7323 24.4133 58.9123 23.6467 58.9123 22.78C58.9123 21.9267 58.739 21.1733 58.3923 20.52C58.0457 19.8533 57.5657 19.3333 56.9523 18.96C56.3523 18.5733 55.6657 18.38 54.8923 18.38C54.1057 18.38 53.4057 18.5733 52.7923 18.96C52.1923 19.3333 51.719 19.8533 51.3723 20.52C51.0257 21.1733 50.8523 21.9267 50.8523 22.78C50.8523 23.62 51.019 24.3733 51.3523 25.04C51.699 25.7067 52.1723 26.2333 52.7723 26.62C53.3857 27.0067 54.0923 27.2 54.8923 27.2ZM65.6064 28L61.2264 17.6H62.3864L66.1064 26.78L65.6864 27.06L69.8864 17.6H71.0064L66.2864 28H65.6064ZM76.6711 28.2C75.6711 28.2 74.7778 27.9733 73.9911 27.52C73.2178 27.0667 72.6111 26.4333 72.1711 25.62C71.7311 24.8067 71.5111 23.86 71.5111 22.78C71.5111 21.9933 71.6311 21.2733 71.8711 20.62C72.1244 19.9667 72.4711 19.4 72.9111 18.92C73.3511 18.4267 73.8778 18.0467 74.4911 17.78C75.1178 17.5133 75.7978 17.38 76.5311 17.38C77.2511 17.38 77.8978 17.5 78.4711 17.74C79.0578 17.98 79.5511 18.3267 79.9511 18.78C80.3511 19.22 80.6511 19.7467 80.8511 20.36C81.0511 20.96 81.1378 21.6267 81.1111 22.36L81.0911 22.9H72.2511V21.98H80.5511L80.1111 22.34V21.86C80.1111 21.3267 79.9778 20.7933 79.7111 20.26C79.4578 19.7267 79.0644 19.28 78.5311 18.92C77.9978 18.56 77.3244 18.38 76.5111 18.38C75.7511 18.38 75.0711 18.5467 74.4711 18.88C73.8844 19.2133 73.4178 19.7 73.0711 20.34C72.7378 20.98 72.5711 21.7733 72.5711 22.72C72.5711 23.6267 72.7378 24.42 73.0711 25.1C73.4044 25.7667 73.8844 26.2867 74.5111 26.66C75.1511 27.02 75.9311 27.2 76.8511 27.2C77.3444 27.2 77.8511 27.12 78.3711 26.96C78.8911 26.8 79.4778 26.4533 80.1311 25.92L80.6511 26.66C80.3578 26.94 80.0111 27.2 79.6111 27.44C79.2111 27.6667 78.7644 27.8533 78.2711 28C77.7778 28.1333 77.2444 28.2 76.6711 28.2ZM83.1319 28V17.6H84.0919L84.1919 19.8H84.0719C84.2185 19.36 84.4852 18.96 84.8719 18.6C85.2585 18.2267 85.7185 17.9333 86.2519 17.72C86.7985 17.4933 87.3719 17.38 87.9719 17.38C88.7052 17.38 89.3252 17.5333 89.8319 17.84C90.3519 18.1467 90.7385 18.62 90.9919 19.26C91.2585 19.9 91.3919 20.7133 91.3919 21.7V28H90.3919V21.74C90.3919 20.9667 90.2852 20.3333 90.0719 19.84C89.8719 19.3333 89.5719 18.96 89.1719 18.72C88.7719 18.4667 88.2719 18.34 87.6719 18.34C87.1519 18.34 86.6785 18.4333 86.2519 18.62C85.8252 18.7933 85.4519 19.0333 85.1319 19.34C84.8119 19.6467 84.5652 20 84.3919 20.4C84.2185 20.7867 84.1319 21.2 84.1319 21.64V28H83.6319C83.6185 28 83.5719 28 83.4919 28C83.4252 28 83.3052 28 83.1319 28Z" fill="#FBF7F5"/>
</svg>
