<?xml version="1.0" encoding="UTF-8"?>
<svg id="Layer_2" data-name="Layer 2" xmlns="http://www.w3.org/2000/svg" viewBox="0 0 56.66 57.55">
  <defs>
    <style>
      .cls-1 {
        fill: none;
      }

      .cls-1, .cls-2, .cls-3, .cls-4, .cls-5 {
        stroke: #050505;
        stroke-linecap: round;
        stroke-linejoin: round;
      }

      .cls-1, .cls-4 {
        stroke-width: 1.01px;
      }

      .cls-2 {
        stroke-width: .86px;
      }

      .cls-3 {
        stroke-width: .41px;
      }

      .cls-6 {
        fill: #ffcb77;
      }

      .cls-6, .cls-7 {
        stroke-width: 0px;
      }

      .cls-7 {
        fill: #050505;
      }

      .cls-5 {
        stroke-width: .77px;
      }
    </style>
  </defs>
  <g id="Haven_Yelow" data-name="Haven Yelow">
    <g>
      <path class="cls-6" d="m46.6,19.81c3.18,1.94,7.07,5.58,8.68,8.9s1.92,7.35.31,10.67c-1.08,2.23-2.98,4.06-5.27,5.07-2.52,1.11-5.71,1.18-7.78-.84-1.04-1.02-1.58-2.48-1.3-3.9.43-2.15,2.37-3.05,4.17-3.8,1.41-.59,2.9-1.23,3.75-2.49s.61-3.31-.82-3.84c.12-2.39-1.74-4.73-4.13-5.19.3-1.27-.54-3.97-1.06-3.54-1.2,1-1.62,1.33-2.01,3-3.34.18-6.32,2.42-8,5.27-1.9,3.21-2.34,7.09-2.27,10.77.02.91.37,1.8,1.06,2.4,1.68,1.43,3.72-.02,4.56-1.66,1.67-3.24.47-7.63-2.63-9.61-3.15-2-7.41-1.42-10.72.31-1.36.71-2.68,1.62-4.2,1.88-1.64.29-3.34-.2-4.98.1-2.59.47-4.49,2.99-4.62,5.58s1.3,5.09,3.35,6.71,4.66,2.43,7.27,2.76c3.78.47,7.69-.03,11.22-1.44,2.2-.88,4.69-2.11,6.76-.71,1.03.7,1.59,1.9,1.58,3.13-.02,2.47-1.86,4.32-3.96,5.36-1.68.83-3.46,1.67-5.28,2.13-1.87.47-3.83.71-5.77.73-5.22.03-5.96-.6-8.85-1.41-1.57-.44-3.17-.89-4.52-1.78-1.35-.89-3.34-2.46-4.3-3.74-3.06-4.09-3.19-6.48-3.56-10.25s1.05-7.72,3.4-10.72c2.05-2.62,4.82-4.91,7.77-6.47,3.2-1.69,6.84-2.73,10.47-2.65,1.58.03,3.3.48,4.12,1.87.5.85.46,1.95-.21,2.68s-2.09.88-2.91.67c-1.4-.36-2.19-1.29-3.2-2.31-1.65-1.66-2.55-3.7-2.95-5.85-1.05-5.72,1.04-12.35,6.36-14.87.03-.02.08-.04.15-.06,2.27-.91,4.79-1.07,7.17-.47.18.05.34.09.47.13,6.4,2.01,9.22,6.85,7.99,13.77-.11.62-.73,2.18-.97,2.77"/>
      <g>
        <path class="cls-1" d="m43.88,18.49c3.18,1.94,7.07,5.58,8.68,8.9s1.92,7.35.31,10.67c-1.08,2.23-2.98,4.06-5.27,5.07-2.52,1.11-5.71,1.18-7.78-.84-1.04-1.02-1.58-2.48-1.3-3.9.43-2.15,2.37-3.05,4.17-3.8,1.41-.59,2.9-1.23,3.75-2.49s.61-3.31-.82-3.84c.12-2.39-1.74-4.73-4.13-5.19.3-1.27-.54-3.97-1.06-3.54-1.2,1-1.62,1.33-2.01,3-3.34.18-6.32,2.42-8,5.27-1.9,3.21-2.34,7.09-2.27,10.77.02.91.37,1.8,1.06,2.4,1.68,1.43,3.72-.02,4.56-1.66,1.67-3.24.47-7.63-2.63-9.61-3.15-2-7.41-1.42-10.72.31-1.36.71-2.68,1.62-4.2,1.88-1.64.29-3.34-.2-4.98.1-2.59.47-4.49,2.99-4.62,5.58s1.3,5.09,3.35,6.71,4.66,2.43,7.27,2.76c3.78.47,7.69-.03,11.22-1.44,2.2-.88,4.69-2.11,6.76-.71,1.03.7,1.59,1.9,1.58,3.13-.02,2.47-1.86,4.32-3.96,5.36-1.68.83-3.46,1.67-5.28,2.13-1.87.47-3.83.71-5.77.73-5.22.03-5.96-.6-8.85-1.41-1.57-.44-3.17-.89-4.52-1.78-1.35-.89-3.34-2.46-4.3-3.74-3.06-4.09-3.19-6.48-3.56-10.25s1.05-7.72,3.4-10.72c2.05-2.62,4.82-4.91,7.77-6.47,3.2-1.69,6.84-2.73,10.47-2.65,1.58.03,3.3.48,4.12,1.87.5.85.46,1.95-.21,2.68s-2.09.88-2.91.67c-1.4-.36-2.19-1.29-3.2-2.31-1.65-1.66-2.55-3.7-2.95-5.85-1.05-5.72,1.04-12.35,6.36-14.87.03-.02.08-.04.15-.06,2.27-.91,4.79-1.07,7.17-.47.18.05.34.09.47.13,6.4,2.01,9.22,6.85,7.99,13.77-.11.62-.73,2.18-.97,2.77"/>
        <circle class="cls-5" cx="42.17" cy="27.58" r=".19"/>
        <ellipse class="cls-4" cx="20.87" cy="34.31" rx=".26" ry=".25"/>
        <path class="cls-4" d="m9.1,36.08c.54.05,1.92-.73,1.78-1.26-.21-.8-3.02-1.09-3.28-.31-.17.52.97,1.51,1.51,1.57Z"/>
        <path class="cls-3" d="m45.83,30c.22.02.71-.1.66-.31-.08-.32-1.21-.44-1.31-.12-.07.21.44.41.65.43Z"/>
        <path class="cls-1" d="m7.13,38.69c.95-.45,1.61-1.44,1.85-2.55-.19,2.19,1.32,4.42,3.45,5.09"/>
        <path class="cls-2" d="m41.68,22.44s1.42-1.81,1.93-1.54c0,0,.04,1.8-.29,2.68"/>
        <polygon class="cls-7" points="29.79 29.02 28.51 33.25 28.15 37.62 28.75 40.46 30.19 41.48 32.08 41.23 33.78 39.3 34.54 36.08 33.87 32.94 32.36 30.69 30.6 29.38 29.79 29.02"/>
      </g>
    </g>
  </g>
</svg>