<?xml version="1.0" encoding="UTF-8"?>
<svg id="Layer_2" data-name="Layer 2" xmlns="http://www.w3.org/2000/svg" viewBox="0 0 155.23 57.55">
  <defs>
    <style>
      .cls-1, .cls-2, .cls-3 {
        stroke-width: 0px;
      }

      .cls-2 {
        fill: #ffcb77;
      }

      .cls-3 {
        fill: #050505;
      }
    </style>
  </defs>
  <g id="Haven_Yelow" data-name="Haven Yelow">
    <g>
      <path class="cls-2" d="M46.6,19.81c3.18,1.94,7.07,5.58,8.68,8.9s1.92,7.35.31,10.67c-1.08,2.23-2.98,4.06-5.27,5.07-2.52,1.11-5.71,1.18-7.78-.84-1.04-1.02-1.58-2.48-1.3-3.9.43-2.15,2.37-3.05,4.17-3.8,1.41-.59,2.9-1.23,3.75-2.49s.61-3.31-.82-3.84c.12-2.39-1.74-4.73-4.13-5.19.3-1.27-.54-3.97-1.06-3.54-1.2,1-1.62,1.33-2.01,3-3.34.18-6.32,2.42-8,5.27-1.9,3.21-2.34,7.09-2.27,10.77.02.91.37,1.8,1.06,2.4,1.68,1.43,3.72-.02,4.56-1.66,1.67-3.24.47-7.63-2.63-9.61-3.15-2-7.41-1.42-10.72.31-1.36.71-2.68,1.62-4.2,1.88-1.64.29-3.34-.2-4.98.1-2.59.47-4.49,2.99-4.62,5.58s1.3,5.09,3.35,6.71,4.66,2.43,7.27,2.76c3.78.47,7.69-.03,11.22-1.44,2.2-.88,4.69-2.11,6.76-.71,1.03.7,1.59,1.9,1.58,3.13-.02,2.47-1.86,4.32-3.96,5.36-1.68.83-3.46,1.67-5.28,2.13-1.87.47-3.83.71-5.77.73-5.22.03-5.96-.6-8.85-1.41-1.57-.44-3.17-.89-4.52-1.78-1.35-.89-3.34-2.46-4.3-3.74-3.06-4.09-3.19-6.48-3.56-10.25s1.05-7.72,3.4-10.72c2.05-2.62,4.82-4.91,7.77-6.47,3.2-1.69,6.84-2.73,10.47-2.65,1.58.03,3.3.48,4.12,1.87.5.85.46,1.95-.21,2.68s-2.09.88-2.91.67c-1.4-.36-2.19-1.29-3.2-2.31-1.65-1.66-2.55-3.7-2.95-5.85-1.05-5.72,1.04-12.35,6.36-14.87.03-.02.08-.04.15-.06,2.27-.91,4.79-1.07,7.17-.47.18.05.34.09.47.13,6.4,2.01,9.22,6.85,7.99,13.77-.11.62-.73,2.18-.97,2.77"/>
      <g>
        <path class="cls-3" d="M21.41,56.73c-3.97,0-5.3-.42-7.11-.98-.45-.14-.93-.29-1.49-.44-1.59-.44-3.23-.9-4.66-1.84-1.13-.75-3.34-2.4-4.43-3.86C.68,45.54.43,42.99.09,39.48l-.04-.38c-.36-3.68.96-7.82,3.51-11.08,2.08-2.66,4.9-5,7.94-6.61,1.94-1.02,3.93-1.77,5.93-2.21-.39-.88-.67-1.82-.86-2.83-1.03-5.61.92-12.71,6.65-15.42.04-.02.1-.04.18-.08,2.35-.94,5.01-1.12,7.48-.49.19.05.36.1.49.14,6.65,2.09,9.61,7.18,8.34,14.34-.08.47-.42,1.43-1,2.87-.1.26-.4.38-.66.28-.26-.1-.39-.4-.28-.66.72-1.8.9-2.44.94-2.67,1.19-6.69-1.45-11.25-7.64-13.2-.12-.04-.27-.08-.44-.12-2.26-.57-4.7-.41-6.86.45l-.12.05c-5.26,2.5-7.04,9.09-6.08,14.32.19,1.01.48,1.95.88,2.81,1.27-.22,2.53-.32,3.77-.29,1.53.03,3.55.43,4.54,2.12.64,1.08.53,2.4-.27,3.28-.86.95-2.52,1.05-3.41.82-1.38-.36-2.22-1.21-3.11-2.12l-.32-.32c-.69-.7-1.28-1.48-1.76-2.34-1.99.42-3.99,1.15-5.92,2.17-2.91,1.54-5.61,3.79-7.61,6.34-2.4,3.06-3.63,6.93-3.3,10.36l.04.38c.33,3.48.55,5.77,3.42,9.61.88,1.17,2.78,2.7,4.18,3.62,1.3.86,2.86,1.29,4.38,1.71.57.16,1.06.31,1.52.45,1.85.58,3.08.97,7.2.93,1.93-.01,3.82-.25,5.65-.71,1.81-.46,3.55-1.28,5.18-2.09,1.1-.54,3.66-2.11,3.68-4.9,0-1.11-.5-2.13-1.35-2.71-1.66-1.13-3.72-.29-5.71.53l-.58.23c-3.63,1.45-7.59,1.96-11.48,1.47-3.07-.38-5.6-1.35-7.52-2.86-2.31-1.82-3.67-4.56-3.54-7.13.15-2.95,2.31-5.55,5.04-6.05.89-.16,1.77-.11,2.63-.06.82.05,1.6.09,2.35-.04,1.09-.19,2.07-.74,3.11-1.32.31-.17.62-.35.94-.51,2.57-1.34,6.16-2.21,9.34-1.18.14-.29.3-.57.46-.84,1.83-3.1,4.88-5.18,8.03-5.49.41-1.52.93-1.94,2.06-2.89.27-.22.59-.24.86-.08.68.42,1.18,2.35,1.12,3.59,2.29.67,4.04,2.9,4.09,5.26.54.3.94.81,1.15,1.46.31.97.15,2.15-.42,2.99-.94,1.4-2.55,2.08-3.97,2.67-1.9.8-3.5,1.6-3.87,3.43-.24,1.21.19,2.49,1.15,3.43,2.05,2,5.17,1.65,7.22.74,2.17-.96,3.99-2.71,5.01-4.82,1.46-3.01,1.34-6.84-.31-10.23-1.6-3.27-5.48-6.85-8.49-8.69-.24-.15-.31-.46-.17-.7.15-.24.46-.31.7-.17,3.04,1.86,7.12,5.5,8.88,9.11,1.79,3.67,1.91,7.83.31,11.12-1.12,2.32-3.13,4.26-5.52,5.31-2.34,1.04-5.93,1.41-8.34-.94-1.21-1.18-1.75-2.81-1.44-4.36.5-2.51,2.89-3.51,4.47-4.17,1.29-.54,2.75-1.15,3.52-2.3.39-.59.51-1.44.29-2.11-.11-.34-.35-.78-.87-.97-.21-.08-.34-.28-.33-.5.1-2.16-1.57-4.25-3.72-4.67-.14-.03-.26-.11-.33-.22-.08-.12-.1-.26-.07-.39.19-.8-.18-2.29-.48-2.83-.99.83-1.28,1.15-1.6,2.52-.05.22-.24.38-.47.39-2.94.16-5.85,2.08-7.59,5.02-.13.23-.26.46-.38.7.32.15.63.32.94.51,3.31,2.11,4.6,6.81,2.81,10.27-.66,1.27-1.82,2.24-2.97,2.46-.85.17-1.67-.06-2.37-.65-.77-.65-1.22-1.67-1.24-2.77-.07-3.7.41-6.75,1.46-9.26-2.85-.88-6.1-.08-8.44,1.15-.31.16-.61.33-.91.5-1.07.6-2.17,1.22-3.43,1.44-.87.15-1.74.1-2.59.05-.84-.05-1.63-.1-2.39.04-2.24.41-4.08,2.65-4.21,5.1-.11,2.25,1.1,4.66,3.16,6.29,1.77,1.4,4.14,2.29,7.02,2.65,3.71.47,7.51-.02,10.97-1.41l.57-.23c2.13-.87,4.55-1.86,6.67-.43,1.14.77,1.81,2.1,1.8,3.55-.02,2.36-1.57,4.48-4.25,5.81-1.6.79-3.48,1.68-5.38,2.16-1.9.48-3.88.73-5.89.74-.13,0-.27,0-.39,0ZM30.05,29.67c-1,2.39-1.46,5.31-1.39,8.88.01.82.34,1.55.89,2.02.46.39.97.54,1.52.43.84-.17,1.75-.94,2.27-1.94,1.56-3.01.43-7.11-2.45-8.94-.27-.17-.54-.32-.82-.45ZM18.96,19.93c.4.66.88,1.27,1.42,1.82l.32.33c.85.87,1.53,1.56,2.64,1.85.64.16,1.87.07,2.41-.52.49-.54.55-1.39.14-2.08-.76-1.29-2.42-1.59-3.69-1.62-1.06-.02-2.15.05-3.24.22Z"/>
        <g>
          <circle class="cls-1" cx="42.17" cy="27.58" r=".19"/>
          <path class="cls-3" d="M42.17,28.15c-.32,0-.58-.26-.58-.58s.26-.58.58-.58.58.26.58.58-.26.58-.58.58ZM42.17,27.38c-.11,0-.19.09-.19.19,0,.21.38.21.38,0,0-.11-.09-.19-.19-.19Z"/>
        </g>
        <g>
          <ellipse class="cls-1" cx="20.87" cy="34.31" rx=".26" ry=".25"/>
          <path class="cls-3" d="M20.87,35.07c-.42,0-.76-.34-.76-.76s.34-.76.76-.76.76.34.76.76-.34.76-.76.76ZM20.87,34.05c-.14,0-.25.11-.25.26,0,.28.5.28.5,0,0-.14-.11-.26-.25-.26Z"/>
        </g>
        <g>
          <path class="cls-1" d="M9.09,36.07c.54.05,1.92-.73,1.78-1.26-.21-.8-3.02-1.09-3.28-.31-.17.52.97,1.51,1.51,1.57Z"/>
          <path class="cls-3" d="M9.15,36.58s-.07,0-.1,0h0c-.59-.06-1.39-.7-1.74-1.24-.29-.45-.27-.78-.2-.99.19-.55.85-.84,1.88-.8.78.03,2.15.3,2.38,1.14.05.21.05.53-.27.91-.41.48-1.32.99-1.95.99ZM9.14,35.57c.26.03,1.01-.4,1.2-.65-.13-.11-.51-.27-1.1-.34-.69-.07-1.12.05-1.2.13.06.18.79.83,1.09.86Z"/>
        </g>
        <g>
          <path class="cls-1" d="M45.83,29.99c.22.02.71-.1.66-.31-.08-.32-1.21-.44-1.31-.12-.07.21.44.41.65.43Z"/>
          <path class="cls-3" d="M45.88,30.2s-.05,0-.07,0h0c-.19-.02-.63-.16-.78-.4-.06-.09-.08-.2-.04-.3.07-.22.35-.34.75-.32.31.01.86.12.95.46.03.11,0,.22-.07.31-.16.19-.53.26-.73.26ZM45.41,29.62c.09.07.3.16.44.17h0c.12,0,.31-.03.41-.08-.06-.04-.21-.1-.42-.12-.21-.02-.36,0-.43.03Z"/>
        </g>
        <path class="cls-3" d="M12.42,41.73c-.05,0-.1,0-.15-.02-1.74-.55-3.08-2-3.59-3.69-.36.49-.82.88-1.33,1.12-.25.12-.56.01-.68-.24-.12-.25-.01-.56.24-.68.76-.36,1.35-1.19,1.57-2.2.06-.26.31-.43.57-.39.26.04.45.28.43.54-.17,1.96,1.19,3.96,3.1,4.57.27.08.41.37.33.64-.07.22-.27.35-.48.35Z"/>
        <g>
          <path class="cls-1" d="M41.68,22.43s1.42-1.81,1.93-1.54c0,0,.04,1.8-.29,2.68"/>
          <path class="cls-3" d="M43.33,24c-.05,0-.1,0-.15-.03-.22-.08-.34-.33-.25-.56.18-.48.24-1.35.26-1.97-.29.25-.76.74-1.16,1.24-.15.19-.42.22-.61.07-.19-.15-.22-.42-.07-.61,1.08-1.38,1.92-1.94,2.47-1.66.14.07.23.22.23.37,0,.08.04,1.89-.31,2.84-.06.17-.23.28-.4.28Z"/>
        </g>
        <polygon class="cls-3" points="29.79 29.01 28.51 33.25 28.14 37.62 28.75 40.46 30.19 41.48 32.08 41.23 33.78 39.3 34.53 36.08 33.87 32.94 32.36 30.68 30.6 29.38 29.79 29.01"/>
      </g>
      <g>
        <path class="cls-1" d="M65.37,39.87V13.23h1.8v12.24l-.43.68c.26-1.13.77-2.09,1.51-2.9.74-.8,1.61-1.42,2.61-1.85,1-.43,2-.65,3.01-.65,1.44,0,2.63.28,3.58.83.95.55,1.65,1.4,2.11,2.56.46,1.15.68,2.62.68,4.39v11.34h-1.8v-11.27c0-1.39-.18-2.54-.54-3.44-.36-.9-.91-1.57-1.64-2.02-.73-.44-1.66-.67-2.79-.67-.89,0-1.72.16-2.48.49-.77.32-1.43.76-2,1.31-.56.55-1.01,1.18-1.33,1.89-.32.71-.49,1.46-.49,2.25v11.45h-1.8Z"/>
        <path class="cls-1" d="M92.01,40.23c-1.7,0-3.23-.42-4.57-1.26-1.34-.84-2.41-1.99-3.19-3.46-.78-1.46-1.17-3.13-1.17-5s.4-3.58,1.21-5.04c.8-1.46,1.88-2.62,3.22-3.46,1.34-.84,2.84-1.26,4.5-1.26.96,0,1.87.14,2.74.43s1.64.69,2.34,1.21c.7.52,1.3,1.12,1.8,1.82.5.7.86,1.45,1.08,2.27l-.72-.47.18-4.86h1.73v18.72h-1.8v-4.68l.61-.68c-.22.79-.58,1.54-1.08,2.23-.5.7-1.1,1.31-1.8,1.84-.7.53-1.48.94-2.34,1.22-.86.29-1.78.43-2.74.43ZM92.26,38.43c1.37,0,2.6-.34,3.69-1.03,1.09-.68,1.96-1.62,2.59-2.81s.95-2.56.95-4.12-.31-2.9-.94-4.09-1.48-2.12-2.57-2.81c-1.09-.68-2.33-1.03-3.73-1.03s-2.67.34-3.76,1.03c-1.09.68-1.95,1.62-2.57,2.81-.62,1.19-.94,2.55-.94,4.09s.31,2.87.92,4.07c.61,1.2,1.46,2.15,2.56,2.84,1.09.7,2.36,1.04,3.8,1.04Z"/>
        <path class="cls-1" d="M110.62,39.87l-7.88-18.72h2.09l6.7,16.52-.76.5,7.56-17.03h2.02l-8.5,18.72h-1.22Z"/>
        <path class="cls-1" d="M129.63,40.23c-1.8,0-3.4-.41-4.81-1.22s-2.5-1.96-3.29-3.42c-.79-1.46-1.19-3.17-1.19-5.11,0-1.42.22-2.71.67-3.89.44-1.18,1.06-2.2,1.85-3.08s1.75-1.55,2.86-2.03c1.12-.48,2.33-.72,3.65-.72s2.47.22,3.51.65c1.04.43,1.93,1.05,2.65,1.85s1.26,1.75,1.62,2.84c.36,1.09.52,2.3.47,3.62l-.04.97h-15.91v-1.66h14.94l-.79.65v-.86c0-.96-.23-1.92-.7-2.88-.47-.96-1.18-1.76-2.14-2.41-.96-.65-2.17-.97-3.64-.97-1.37,0-2.59.3-3.65.9-1.07.6-1.91,1.48-2.52,2.63-.61,1.15-.92,2.58-.92,4.28s.3,3.05.9,4.27c.6,1.21,1.47,2.15,2.61,2.81,1.14.66,2.54.99,4.19.99.89,0,1.8-.14,2.74-.43.94-.29,1.99-.91,3.17-1.87l.94,1.33c-.53.5-1.15.97-1.87,1.39-.72.42-1.52.76-2.41,1.01s-1.85.38-2.88.38Z"/>
        <path class="cls-1" d="M140.36,39.87v-18.72h1.73l.18,3.96h-.22c.26-.79.74-1.52,1.44-2.18.7-.66,1.53-1.19,2.5-1.58.97-.4,2-.59,3.08-.59,1.32,0,2.44.28,3.37.83.92.55,1.62,1.4,2.09,2.56s.7,2.62.7,4.39v11.34h-1.8v-11.27c0-1.39-.19-2.54-.56-3.44s-.92-1.57-1.64-2.02c-.72-.44-1.62-.67-2.7-.67-.94,0-1.79.16-2.56.49-.77.32-1.44.76-2.02,1.31-.58.55-1.02,1.18-1.33,1.89-.31.71-.47,1.46-.47,2.25v11.45h-1.8Z"/>
      </g>
    </g>
  </g>
</svg>