<?xml version="1.0" encoding="UTF-8"?>
<svg id="Layer_2" data-name="Layer 2" xmlns="http://www.w3.org/2000/svg" viewBox="0 0 155.23 57.55">
  <defs>
    <style>
      .cls-1 {
        fill: none;
      }

      .cls-1, .cls-2, .cls-3, .cls-4, .cls-5 {
        stroke: #050505;
        stroke-linecap: round;
        stroke-linejoin: round;
      }

      .cls-1, .cls-4 {
        stroke-width: 1.01px;
      }

      .cls-2 {
        stroke-width: .86px;
      }

      .cls-6, .cls-7, .cls-8 {
        stroke-width: 0px;
      }

      .cls-3 {
        stroke-width: .41px;
      }

      .cls-7 {
        fill: #f6b7cc;
      }

      .cls-8 {
        fill: #050505;
      }

      .cls-5 {
        stroke-width: .77px;
      }
    </style>
  </defs>
  <g id="Haven_Pink" data-name="Haven Pink">
    <g>
      <path class="cls-7" d="M46.6,19.81c3.18,1.94,7.07,5.58,8.68,8.9s1.92,7.35.31,10.67c-1.08,2.23-2.98,4.06-5.27,5.07-2.52,1.11-5.71,1.18-7.78-.84-1.04-1.02-1.58-2.48-1.3-3.9.43-2.15,2.37-3.05,4.17-3.8,1.41-.59,2.9-1.23,3.75-2.49s.61-3.31-.82-3.84c.12-2.39-1.74-4.73-4.13-5.19.3-1.27-.54-3.97-1.06-3.54-1.2,1-1.62,1.33-2.01,3-3.34.18-6.32,2.42-8,5.27-1.9,3.21-2.34,7.09-2.27,10.77.02.91.37,1.8,1.06,2.4,1.68,1.43,3.72-.02,4.56-1.66,1.67-3.24.47-7.63-2.63-9.61-3.15-2-7.41-1.42-10.72.31-1.36.71-2.68,1.62-4.2,1.88-1.64.29-3.34-.2-4.98.1-2.59.47-4.49,2.99-4.62,5.58s1.3,5.09,3.35,6.71,4.66,2.43,7.27,2.76c3.78.47,7.69-.03,11.22-1.44,2.2-.88,4.69-2.11,6.76-.71,1.03.7,1.59,1.9,1.58,3.13-.02,2.47-1.86,4.32-3.96,5.36-1.68.83-3.46,1.67-5.28,2.13-1.87.47-3.83.71-5.77.73-5.22.03-5.96-.6-8.85-1.41-1.57-.44-3.17-.89-4.52-1.78-1.35-.89-3.34-2.46-4.3-3.74-3.06-4.09-3.19-6.48-3.56-10.25s1.05-7.72,3.4-10.72c2.05-2.62,4.82-4.91,7.77-6.47,3.2-1.69,6.84-2.73,10.47-2.65,1.58.03,3.3.48,4.12,1.87.5.85.46,1.95-.21,2.68s-2.09.88-2.91.67c-1.4-.36-2.19-1.29-3.2-2.31-1.65-1.66-2.55-3.7-2.95-5.85-1.05-5.72,1.04-12.35,6.36-14.87.03-.02.08-.04.15-.06,2.27-.91,4.79-1.07,7.17-.47.18.05.34.09.47.13,6.4,2.01,9.22,6.85,7.99,13.77-.11.62-.73,2.18-.97,2.77"/>
      <g>
        <path class="cls-1" d="M43.88,18.49c3.18,1.94,7.07,5.58,8.68,8.9s1.92,7.35.31,10.67c-1.08,2.23-2.98,4.06-5.27,5.07-2.52,1.11-5.71,1.18-7.78-.84-1.04-1.02-1.58-2.48-1.3-3.9.43-2.15,2.37-3.05,4.17-3.8,1.41-.59,2.9-1.23,3.75-2.49s.61-3.31-.82-3.84c.12-2.39-1.74-4.73-4.13-5.19.3-1.27-.54-3.97-1.06-3.54-1.2,1-1.62,1.33-2.01,3-3.34.18-6.32,2.42-8,5.27-1.9,3.21-2.34,7.09-2.27,10.77.02.91.37,1.8,1.06,2.4,1.68,1.43,3.72-.02,4.56-1.66,1.67-3.24.47-7.63-2.63-9.61-3.15-2-7.41-1.42-10.72.31-1.36.71-2.68,1.62-4.2,1.88-1.64.29-3.34-.2-4.98.1-2.59.47-4.49,2.99-4.62,5.58s1.3,5.09,3.35,6.71,4.66,2.43,7.27,2.76c3.78.47,7.69-.03,11.22-1.44,2.2-.88,4.69-2.11,6.76-.71,1.03.7,1.59,1.9,1.58,3.13-.02,2.47-1.86,4.32-3.96,5.36-1.68.83-3.46,1.67-5.28,2.13-1.87.47-3.83.71-5.77.73-5.22.03-5.96-.6-8.85-1.41-1.57-.44-3.17-.89-4.52-1.78-1.35-.89-3.34-2.46-4.3-3.74-3.06-4.09-3.19-6.48-3.56-10.25s1.05-7.72,3.4-10.72c2.05-2.62,4.82-4.91,7.77-6.47,3.2-1.69,6.84-2.73,10.47-2.65,1.58.03,3.3.48,4.12,1.87.5.85.46,1.95-.21,2.68s-2.09.88-2.91.67c-1.4-.36-2.19-1.29-3.2-2.31-1.65-1.66-2.55-3.7-2.95-5.85-1.05-5.72,1.04-12.35,6.36-14.87.03-.02.08-.04.15-.06,2.27-.91,4.79-1.07,7.17-.47.18.05.34.09.47.13,6.4,2.01,9.22,6.85,7.99,13.77-.11.62-.73,2.18-.97,2.77"/>
        <circle class="cls-5" cx="42.17" cy="27.58" r=".19"/>
        <ellipse class="cls-4" cx="20.87" cy="34.31" rx=".26" ry=".25"/>
        <path class="cls-4" d="M9.1,36.08c.54.05,1.92-.73,1.78-1.26-.21-.8-3.02-1.09-3.28-.31-.17.52.97,1.51,1.51,1.57Z"/>
        <path class="cls-3" d="M45.83,30c.22.02.71-.1.66-.31-.08-.32-1.21-.44-1.31-.12-.07.21.44.41.65.43Z"/>
        <path class="cls-1" d="M7.13,38.69c.95-.45,1.61-1.44,1.85-2.55-.19,2.19,1.32,4.42,3.45,5.09"/>
        <path class="cls-2" d="M41.68,22.44s1.42-1.81,1.93-1.54c0,0,.04,1.8-.29,2.68"/>
        <polygon class="cls-8" points="29.79 29.02 28.51 33.25 28.15 37.62 28.75 40.46 30.19 41.48 32.08 41.23 33.78 39.3 34.54 36.08 33.87 32.94 32.36 30.69 30.6 29.38 29.79 29.02"/>
      </g>
      <g>
        <path class="cls-6" d="M65.37,39.87V13.23h1.8v12.24l-.43.68c.26-1.13.77-2.09,1.51-2.9.74-.8,1.61-1.42,2.61-1.85,1-.43,2-.65,3.01-.65,1.44,0,2.63.28,3.58.83.95.55,1.65,1.4,2.11,2.56.46,1.15.68,2.62.68,4.39v11.34h-1.8v-11.27c0-1.39-.18-2.54-.54-3.44-.36-.9-.91-1.57-1.64-2.02-.73-.44-1.66-.67-2.79-.67-.89,0-1.72.16-2.48.49-.77.32-1.43.76-2,1.31-.56.55-1.01,1.18-1.33,1.89-.32.71-.49,1.46-.49,2.25v11.45h-1.8Z"/>
        <path class="cls-6" d="M92.01,40.23c-1.71,0-3.23-.42-4.57-1.26-1.34-.84-2.41-1.99-3.19-3.46-.78-1.46-1.17-3.13-1.17-5s.4-3.58,1.21-5.04c.8-1.46,1.88-2.62,3.22-3.46,1.34-.84,2.84-1.26,4.5-1.26.96,0,1.87.14,2.74.43.86.29,1.64.69,2.34,1.21.7.52,1.3,1.12,1.8,1.82.5.7.86,1.45,1.08,2.27l-.72-.47.18-4.86h1.73v18.72h-1.8v-4.68l.61-.68c-.22.79-.58,1.54-1.08,2.23-.5.7-1.1,1.31-1.8,1.84-.7.53-1.48.94-2.34,1.22-.86.29-1.78.43-2.74.43ZM92.26,38.43c1.37,0,2.6-.34,3.69-1.03,1.09-.68,1.96-1.62,2.59-2.81s.95-2.56.95-4.12-.31-2.9-.94-4.09-1.48-2.12-2.57-2.81-2.33-1.03-3.73-1.03-2.67.34-3.76,1.03-1.95,1.62-2.57,2.81c-.62,1.19-.94,2.55-.94,4.09s.31,2.87.92,4.07c.61,1.2,1.46,2.15,2.56,2.84,1.09.7,2.36,1.04,3.8,1.04Z"/>
        <path class="cls-6" d="M110.62,39.87l-7.88-18.72h2.09l6.7,16.52-.76.5,7.56-17.03h2.02l-8.5,18.72h-1.22Z"/>
        <path class="cls-6" d="M129.63,40.23c-1.8,0-3.4-.41-4.81-1.22-1.4-.82-2.5-1.96-3.29-3.42-.79-1.46-1.19-3.17-1.19-5.11,0-1.42.22-2.71.67-3.89.44-1.18,1.06-2.2,1.85-3.08s1.75-1.55,2.86-2.03c1.12-.48,2.33-.72,3.65-.72s2.47.22,3.51.65c1.04.43,1.93,1.05,2.65,1.85.72.8,1.26,1.75,1.62,2.84.36,1.09.52,2.3.47,3.62l-.04.97h-15.91v-1.66h14.94l-.79.65v-.86c0-.96-.23-1.92-.7-2.88-.47-.96-1.18-1.76-2.14-2.41-.96-.65-2.17-.97-3.64-.97-1.37,0-2.59.3-3.65.9-1.07.6-1.91,1.48-2.52,2.63-.61,1.15-.92,2.58-.92,4.28s.3,3.05.9,4.27,1.47,2.15,2.61,2.81c1.14.66,2.54.99,4.19.99.89,0,1.8-.14,2.74-.43.94-.29,1.99-.91,3.17-1.87l.94,1.33c-.53.5-1.15.97-1.87,1.39s-1.52.76-2.41,1.01c-.89.25-1.85.38-2.88.38Z"/>
        <path class="cls-6" d="M140.36,39.87v-18.72h1.73l.18,3.96h-.22c.26-.79.74-1.52,1.44-2.18.7-.66,1.53-1.19,2.5-1.58.97-.4,2-.59,3.08-.59,1.32,0,2.44.28,3.37.83.92.55,1.62,1.4,2.09,2.56s.7,2.62.7,4.39v11.34h-1.8v-11.27c0-1.39-.19-2.54-.56-3.44s-.92-1.57-1.64-2.02c-.72-.44-1.62-.67-2.7-.67-.94,0-1.79.16-2.56.49-.77.32-1.44.76-2.02,1.31-.58.55-1.02,1.18-1.33,1.89-.31.71-.47,1.46-.47,2.25v11.45h-1.8Z"/>
      </g>
    </g>
  </g>
</svg>