<?xml version="1.0" encoding="UTF-8"?>
<svg id="Layer_2" data-name="Layer 2" xmlns="http://www.w3.org/2000/svg" viewBox="0 0 155.23 57.55">
  <defs>
    <style>
      .cls-1 {
        fill: none;
      }

      .cls-1, .cls-2, .cls-3, .cls-4 {
        stroke-width: 0px;
      }

      .cls-3 {
        fill: #1d7874;
      }

      .cls-4 {
        fill: #050505;
      }
    </style>
  </defs>
  <g id="Haven_Teal" data-name="Haven Teal">
    <g>
      <path class="cls-1" d="m6.85,50.62c-3.06-4.09-3.19-6.48-3.56-10.25-.36-3.77,1.05-7.72,3.4-10.72,2.05-2.62,4.82-4.91,7.77-6.47,1.36-.72,2.8-1.31,4.29-1.76-.31-.41-.6-.84-.85-1.29-1.99.42-3.99,1.15-5.92,2.17-2.91,1.54-5.61,3.79-7.61,6.33-2.4,3.06-3.63,6.93-3.3,10.36l.04.38c.33,3.48.55,5.77,3.42,9.61.88,1.18,2.78,2.7,4.18,3.62.12.08.25.13.37.21-.87-.71-1.7-1.5-2.23-2.2Z"/>
      <path class="cls-1" d="m42.31,27.44s-.08-.06-.14-.06-.1.02-.14.06c.04-.03.08-.06.14-.06s.1.02.14.06Z"/>
      <path class="cls-1" d="m20.69,34.13s.11-.07.18-.07.13.03.18.07c-.05-.05-.11-.08-.18-.08s-.13.03-.18.08Z"/>
      <path class="cls-1" d="m43.78,23.56c.17.13.34.26.5.41.03-.58-.08-1.31-.26-1.92-.03.5-.1,1.07-.24,1.51Z"/>
      <path class="cls-1" d="m26.16,2.72s.08-.04.15-.06c1.94-.78,4.06-1,6.12-.68-.43-.18-.88-.35-1.36-.5-.12-.04-.27-.08-.44-.12-2.27-.57-4.7-.41-6.86.45l-.13.05c-5.26,2.49-7.04,9.09-6.08,14.32.19,1.01.48,1.95.88,2.81.54-.09,1.09-.16,1.63-.2-.11-.39-.21-.79-.28-1.19-1.05-5.72,1.04-12.35,6.36-14.87Z"/>
      <path class="cls-1" d="m20.9,20.88c-.19-.36-.35-.73-.5-1.11-.48.04-.96.09-1.45.16.26.42.55.81.87,1.19.36-.09.72-.17,1.08-.24Z"/>
      <path class="cls-1" d="m41.26,39.72c.43-2.15,2.37-3.05,4.17-3.8,1.41-.59,2.9-1.23,3.75-2.49s.61-3.31-.82-3.84c.11-2.18-1.43-4.29-3.5-5,.78.95,1.26,2.13,1.29,3.36.54.3.94.81,1.15,1.46.31.97.15,2.15-.42,2.99-.94,1.4-2.55,2.08-3.97,2.67-1.9.8-3.5,1.6-3.87,3.43-.24,1.21.19,2.49,1.15,3.43.57.55,1.22.91,1.9,1.14-.72-.96-1.06-2.17-.83-3.35Z"/>
      <path class="cls-1" d="m132.98,23.53c-.96-.65-2.17-.97-3.64-.97-1.37,0-2.59.3-3.65.9-1.07.6-1.91,1.48-2.52,2.63-.44.84-.72,1.82-.84,2.95h13.5v-.22c0-.96-.23-1.92-.7-2.88s-1.18-1.76-2.14-2.41Z"/>
      <path class="cls-1" d="m31.2,46.91c1.31-.52,2.72-1.17,4.09-1.31-.11-.1-.21-.22-.34-.3-1.66-1.12-3.72-.29-5.71.53l-.58.23c-3.62,1.45-7.59,1.96-11.48,1.47-.51-.06-1.01-.15-1.49-.25,1.36.54,2.82.89,4.28,1.07,3.78.47,7.69-.03,11.22-1.44Z"/>
      <path class="cls-1" d="m95.99,23.58c-1.09-.68-2.33-1.03-3.73-1.03s-2.67.34-3.76,1.03c-1.09.68-1.95,1.62-2.57,2.81-.62,1.19-.94,2.55-.94,4.09s.31,2.87.92,4.07c.61,1.2,1.46,2.15,2.56,2.84,1.09.7,2.36,1.04,3.8,1.04s2.6-.34,3.69-1.03c1.09-.68,1.96-1.62,2.59-2.81.64-1.19.95-2.56.95-4.12s-.31-2.9-.94-4.09c-.62-1.19-1.48-2.12-2.57-2.81Z"/>
      <path class="cls-3" d="m39.71,14.85c-.08.47-.42,1.43-1,2.87-.1.26-.4.39-.66.28-.26-.1-.39-.4-.28-.66.72-1.79.9-2.44.94-2.67,1.1-6.17-1.08-10.53-6.28-12.69-2.06-.32-4.18-.1-6.12.68-.07.03-.12.05-.15.06-5.32,2.53-7.42,9.15-6.36,14.87.07.4.17.8.28,1.19.72-.07,1.43-.1,2.14-.09,1.52.03,3.55.43,4.54,2.12.64,1.08.53,2.4-.27,3.28-.86.95-2.52,1.05-3.41.82-1.39-.36-2.22-1.21-3.11-2.12l-.32-.32c-.33-.33-.63-.68-.91-1.05-1.48.45-2.93,1.04-4.29,1.76-2.96,1.56-5.72,3.86-7.77,6.47-2.35,3-3.77,6.95-3.4,10.72.36,3.77.5,6.16,3.56,10.25.52.7,1.36,1.48,2.23,2.2,1.22.71,2.63,1.12,4.01,1.51.57.16,1.06.31,1.52.46,1.85.58,3.08.97,7.2.93,1.93-.01,3.83-.25,5.65-.71,1.81-.46,3.62-1.32,5.18-2.09,1.1-.54,3.66-2.11,3.68-4.9,0-.95-.37-1.81-1.01-2.4-1.37.14-2.78.79-4.09,1.31-3.53,1.41-7.44,1.91-11.22,1.44-1.46-.18-2.92-.52-4.28-1.07-2.4-.48-4.43-1.35-6.03-2.61-2.31-1.82-3.67-4.56-3.54-7.13.06-1.13.41-2.2.97-3.13,0-.02,0-.05.01-.07.06-.18.19-.32.34-.43.92-1.24,2.22-2.15,3.71-2.42.89-.16,1.77-.11,2.63-.06.82.05,1.6.09,2.35-.04,1.09-.19,2.07-.74,3.11-1.32.31-.17.62-.35.94-.51,2.57-1.34,6.16-2.21,9.34-1.18.14-.29.3-.57.46-.84,1.83-3.1,4.88-5.18,8.03-5.49.41-1.51.93-1.94,2.06-2.88.27-.23.59-.25.86-.08.48.3.86,1.33,1.03,2.35.78-.84,1.4-1.16,1.85-.93.14.07.23.22.23.37,0,.04.01.55-.03,1.16.18.61.29,1.34.26,1.92.21.19.4.4.57.62,2.08.72,3.61,2.83,3.5,5,1.43.53,1.66,2.59.82,3.84s-2.34,1.9-3.75,2.49c-1.8.76-3.74,1.66-4.17,3.8-.24,1.18.1,2.39.83,3.35,1.79.6,3.83.25,5.32-.4,2.17-.96,3.99-2.72,5.01-4.82,1.46-3.01,1.34-6.84-.31-10.23-1.46-3-4.84-6.24-7.71-8.18l-3.41-.58c.23-.58.86-2.14.97-2.77,1.04-5.84-.82-10.2-5.28-12.62,2.84,2.66,3.92,6.55,3.06,11.39Z"/>
      <path class="cls-3" d="m33.07,53.82c-1.6.79-3.47,1.68-5.38,2.16-1.9.48-3.88.73-5.89.74-.13,0-.26,0-.38,0-2.62,0-4.09-.18-5.31-.47,2.54.74,3.47,1.31,8.42,1.28,1.93-.01,3.89-.25,5.77-.73,1.83-.46,3.6-1.29,5.28-2.13,2.1-1.04,3.94-2.89,3.96-5.36.01-1.23-.55-2.43-1.58-3.13-.42-.28-.85-.45-1.3-.55.43.68.66,1.5.66,2.36-.02,2.36-1.57,4.48-4.25,5.81Z"/>
      <path class="cls-3" d="m20.66,30.46c-.31.16-.61.33-.91.5-1.07.6-2.17,1.21-3.43,1.44-.87.15-1.74.1-2.59.05-.84-.05-1.63-.1-2.39.04-.79.15-1.53.53-2.17,1.07.79.06,1.96.34,2.18,1.11.73-.68,1.62-1.17,2.62-1.35,1.64-.3,3.34.19,4.98-.1,1.52-.27,2.83-1.17,4.2-1.88,1.76-.92,3.79-1.51,5.78-1.57.06-.15.11-.31.17-.46-2.85-.88-6.1-.08-8.44,1.15Z"/>
      <path class="cls-3" d="m7.35,39.14s-.05.01-.08.02c.36,1.75,1.44,3.46,3.02,4.71.5.39,1.06.74,1.65,1.05-1.49-1.46-2.49-3.41-2.57-5.45-.3-.45-.54-.94-.69-1.45-.36.49-.82.88-1.33,1.12Z"/>
      <path class="cls-3" d="m46.74,19.9c2.46,1.97,4.99,4.62,6.27,7.26,1.79,3.67,1.91,7.83.31,11.12-1.12,2.32-3.13,4.26-5.52,5.31-1.19.53-2.71.88-4.22.79,2.01,1.19,4.61,1.01,6.75.07,2.29-1.01,4.19-2.84,5.27-5.07,1.61-3.32,1.3-7.36-.31-10.67-1.59-3.27-5.39-6.85-8.54-8.81Z"/>
      <path class="cls-3" d="m34.23,39.53c-.59,1.15-1.6,2.04-2.64,2.37.11.13.22.27.35.38,1.68,1.43,3.72-.02,4.56-1.66,1.67-3.24.47-7.63-2.63-9.61-.33-.21-.67-.38-1.01-.53,2.2,2.39,2.87,6.15,1.37,9.05Z"/>
      <path class="cls-3" d="m19.82,21.13c.18.21.36.43.55.63l.32.33c.85.87,1.53,1.56,2.64,1.85.64.17,1.87.07,2.41-.52.49-.54.55-1.39.14-2.08-.76-1.29-2.42-1.59-3.69-1.62-.59-.01-1.19.01-1.8.06.14.38.31.75.5,1.11-.36.07-.72.16-1.08.24Z"/>
      <path class="cls-3" d="m9.61,37.52c.12-.42.28-.82.49-1.21-.21.1-.41.17-.61.21,0,.34.04.67.12,1Z"/>
      <path class="cls-3" d="m41,22.95c.19-.8-.18-2.29-.48-2.83-.99.83-1.28,1.15-1.6,2.53-.05.22-.24.38-.47.39-2.94.16-5.85,2.08-7.59,5.02-.13.23-.26.46-.38.7.32.15.63.32.94.52.42.27.81.58,1.17.93.17-.36.36-.73.56-1.08,1.68-2.84,4.66-5.09,8-5.27.03-.13.06-.24.09-.35-.07-.04-.13-.09-.17-.16-.08-.12-.1-.26-.07-.39Z"/>
      <path class="cls-3" d="m7.13,37.59c0,.16,0,.32.01.48.57-.36,1.01-.98,1.24-1.75-.29-.17-.57-.39-.79-.63-.26.6-.42,1.24-.46,1.9Z"/>
      <path class="cls-4" d="m53.33,38.28c1.59-3.29,1.47-7.45-.31-11.12-1.29-2.64-3.82-5.3-6.27-7.26-.9-.72-1.79-1.35-2.6-1.85-.24-.15-.55-.07-.7.17-.15.24-.07.55.17.7.25.15.52.34.78.51,2.87,1.94,6.25,5.18,7.71,8.18,1.65,3.39,1.77,7.22.31,10.23-1.02,2.11-2.85,3.87-5.01,4.82-1.48.66-3.53,1.01-5.32.4-.68-.23-1.34-.59-1.9-1.14-.96-.94-1.4-2.23-1.15-3.43.37-1.83,1.97-2.64,3.87-3.43,1.42-.59,3.03-1.27,3.97-2.67.57-.84.73-2.02.42-2.99-.21-.65-.61-1.16-1.15-1.46-.03-1.22-.51-2.4-1.29-3.36-.18-.22-.37-.42-.57-.62-.16-.15-.33-.28-.5-.41.13-.44.2-1.01.24-1.51.04-.61.03-1.13.03-1.16,0-.16-.09-.3-.23-.37-.44-.23-1.06.09-1.85.93-.17-1.02-.55-2.06-1.03-2.35-.27-.17-.59-.15-.86.08-1.13.94-1.65,1.37-2.06,2.88-3.15.31-6.2,2.38-8.03,5.49-.16.27-.31.55-.46.84-3.17-1.03-6.76-.17-9.34,1.18-.31.16-.63.34-.94.51-1.04.58-2.02,1.13-3.11,1.32-.75.13-1.53.09-2.35.04-.86-.05-1.75-.1-2.63.06-1.49.27-2.79,1.18-3.71,2.42-.15.12-.28.26-.34.43,0,.02,0,.05-.01.07-.56.93-.92,2-.97,3.13-.13,2.58,1.23,5.31,3.54,7.13,1.6,1.26,3.63,2.13,6.03,2.61.48.1.98.18,1.49.25,3.88.48,7.85-.03,11.48-1.47l.58-.23c1.99-.81,4.05-1.65,5.71-.53.13.09.23.2.34.3.64.6,1.02,1.45,1.01,2.4-.02,2.79-2.58,4.36-3.68,4.9-1.55.77-3.37,1.63-5.18,2.09-1.82.46-3.72.7-5.65.71-4.11.04-5.34-.36-7.2-.93-.46-.14-.94-.3-1.52-.46-1.38-.38-2.79-.79-4.01-1.51-.12-.07-.25-.13-.37-.21-1.4-.92-3.3-2.44-4.18-3.62-2.87-3.84-3.09-6.13-3.42-9.61l-.04-.38c-.33-3.43.9-7.3,3.3-10.36,2-2.55,4.7-4.8,7.61-6.33,1.94-1.02,3.93-1.75,5.92-2.17.25.45.54.88.85,1.29.28.37.58.72.91,1.05l.32.32c.89.91,1.73,1.76,3.11,2.12.9.23,2.55.13,3.41-.82.8-.88.9-2.19.27-3.28-.99-1.7-3.02-2.09-4.54-2.12-.71-.01-1.42.02-2.14.09-.54.05-1.08.11-1.63.2-.4-.86-.7-1.8-.88-2.81-.96-5.23.82-11.83,6.08-14.32l.13-.05c2.16-.86,4.59-1.02,6.86-.45.17.04.32.08.44.12.48.15.93.32,1.36.5,5.21,2.16,7.38,6.52,6.28,12.69-.04.22-.22.87-.94,2.67-.1.26.02.56.28.66.26.11.56-.02.66-.28.58-1.43.91-2.4,1-2.87.86-4.84-.22-8.73-3.06-11.39-1.36-1.28-3.12-2.28-5.28-2.95-.14-.04-.3-.09-.49-.14-2.47-.63-5.13-.45-7.49.49l-.18.08c-5.73,2.72-7.68,9.81-6.65,15.42.19,1.01.47,1.96.86,2.83-1.99.45-3.99,1.19-5.93,2.21-3.04,1.6-5.85,3.95-7.94,6.61C1.01,31.27-.3,35.41.06,39.09l.04.38c.34,3.52.58,6.06,3.62,10.12,1.09,1.46,3.3,3.12,4.43,3.86,1.43.94,3.07,1.4,4.66,1.84.56.16,1.04.31,1.49.45.62.19,1.18.37,1.81.52,1.22.29,2.69.47,5.31.47.12,0,.25,0,.38,0,2.01-.01,3.99-.26,5.89-.74,1.91-.48,3.78-1.37,5.38-2.16,2.68-1.33,4.23-3.44,4.25-5.81,0-.86-.23-1.67-.66-2.36-.29-.47-.68-.88-1.14-1.2-2.11-1.43-4.53-.45-6.66.43l-.57.23c-3.47,1.38-7.26,1.87-10.97,1.41-2.07-.26-3.86-.8-5.37-1.6-.59-.31-1.15-.66-1.65-1.05-1.58-1.25-2.66-2.96-3.02-4.71.03,0,.05,0,.08-.02.51-.25.97-.63,1.33-1.12.16.51.4,1,.69,1.45.68,1.03,1.69,1.86,2.9,2.24.05.02.1.02.15.02.22,0,.42-.14.48-.35.08-.27-.06-.55-.33-.64-1.46-.47-2.6-1.76-2.97-3.22-.08-.33-.12-.66-.12-1,.2-.04.4-.11.61-.21.4-.19.78-.46,1-.72.32-.38.32-.7.27-.91,0,0,0-.01,0-.02-.22-.77-1.4-1.05-2.18-1.11.64-.53,1.38-.92,2.17-1.07.76-.14,1.55-.09,2.39-.04.84.05,1.72.1,2.59-.05,1.26-.22,2.37-.84,3.43-1.44.3-.17.61-.34.91-.5,2.35-1.23,5.59-2.03,8.44-1.15-.06.15-.12.31-.17.46-.92,2.42-1.35,5.33-1.29,8.81.02,1.11.47,2.12,1.24,2.78.7.59,1.52.82,2.37.65.11-.02.22-.06.33-.09,1.04-.33,2.05-1.22,2.64-2.37,1.5-2.9.83-6.66-1.37-9.05-.09-.1-.18-.2-.27-.29-.36-.35-.75-.66-1.17-.93-.31-.2-.62-.37-.94-.52.12-.24.25-.47.38-.7,1.74-2.94,4.64-4.86,7.59-5.02.22-.01.41-.17.47-.39.33-1.38.62-1.7,1.6-2.53.3.55.67,2.03.48,2.83-.03.13,0,.28.07.39.04.07.1.12.17.16.05.03.1.05.16.07,2.16.42,3.83,2.51,3.72,4.67-.01.22.12.42.33.5.29.11.48.29.62.49-.12-.03-.25-.05-.34-.05-.41-.02-.68.1-.75.32-.03.1-.02.2.04.3.16.24.59.38.78.4.02,0,.04,0,.07,0,.14,0,.34-.03.51-.11.08.6-.04,1.25-.37,1.73-.77,1.15-2.23,1.76-3.52,2.3-1.58.66-3.97,1.66-4.47,4.17-.31,1.55.23,3.18,1.44,4.36,1.18,1.15,2.65,1.65,4.11,1.73,1.52.09,3.03-.26,4.22-.79,2.38-1.05,4.4-2.99,5.52-5.31ZM20.41,19.77c.6-.05,1.2-.07,1.8-.06,1.27.03,2.93.33,3.69,1.62.4.69.35,1.54-.14,2.08-.54.6-1.77.69-2.41.52-1.11-.29-1.79-.98-2.64-1.85l-.32-.33c-.2-.2-.38-.41-.55-.63-.31-.38-.61-.77-.87-1.19.48-.08.97-.13,1.45-.16Zm-13.26,18.3c0-.16-.02-.32-.01-.48.03-.66.2-1.3.46-1.9.23.24.5.46.79.63-.23.77-.67,1.39-1.24,1.75Zm2.1-3.5c.59.06.97.23,1.1.34-.19.26-.94.65-1.2.65-.3-.03-1.03-.69-1.09-.86.08-.08.51-.21,1.19-.13Zm33.93-13.12c-.02.58-.07,1.36-.23,1.86l-.91-.63c.39-.5.86-.97,1.14-1.22Zm2.67,8.33h0c-.14-.01-.35-.1-.44-.17.07-.03.22-.05.43-.03.21.02.35.08.42.12-.09.05-.29.1-.41.08Z"/>
      <path class="cls-2" d="m42.36,27.58c0-.05-.02-.1-.06-.14-.04-.03-.08-.06-.14-.06s-.1.02-.14.06c-.03.04-.06.08-.06.14,0,.21.38.21.38,0Z"/>
      <path class="cls-4" d="m42.75,27.58c0-.32-.26-.58-.58-.58s-.58.26-.58.58.26.58.58.58.58-.26.58-.58Zm-.77,0c0-.05.02-.1.06-.14.03-.04.08-.06.14-.06s.1.02.14.06c.03.04.06.08.06.14,0,.21-.38.21-.38,0Z"/>
      <path class="cls-2" d="m20.69,34.13s-.07.11-.07.18c0,.28.5.28.5,0,0-.07-.03-.13-.07-.18-.05-.04-.11-.07-.18-.07s-.13.03-.18.07Z"/>
      <path class="cls-4" d="m20.11,34.31c0,.42.34.76.76.76s.76-.34.76-.76-.34-.76-.76-.76-.76.34-.76.76Zm1.01,0c0,.28-.5.28-.5,0,0-.07.03-.13.07-.18.05-.05.11-.08.18-.08s.13.03.18.08c.04.05.07.11.07.18Z"/>
      <path class="cls-2" d="m8.05,34.7c.06.18.79.83,1.09.86.26,0,1.01-.4,1.2-.65-.13-.11-.51-.27-1.1-.34-.69-.08-1.12.05-1.19.13Z"/>
      <path class="cls-2" d="m45.41,29.62c.09.07.3.16.44.17h0c.12.02.31-.03.41-.08-.06-.04-.21-.1-.42-.12-.21-.02-.35,0-.43.03Z"/>
      <path class="cls-2" d="m43.18,21.46c-.28.25-.75.73-1.14,1.22l.91.63c.15-.5.21-1.28.23-1.86Z"/>
      <path class="cls-2" d="m77.45,21.58c-.95-.55-2.14-.83-3.58-.83-1.01,0-2.01.22-3.01.65-1,.43-1.87,1.05-2.61,1.85-.45.49-.8,1.04-1.08,1.65v-11.68h-1.8v26.64h1.8v-11.45c0-.79.16-1.54.49-2.25.32-.71.77-1.34,1.33-1.89.56-.55,1.23-.99,2-1.31.77-.32,1.6-.49,2.48-.49,1.13,0,2.06.22,2.79.67.73.44,1.28,1.12,1.64,2.02.36.9.54,2.05.54,3.44v11.27h1.8v-11.34c0-1.78-.23-3.24-.68-4.39-.46-1.15-1.16-2-2.11-2.56Z"/>
      <path class="cls-2" d="m99.29,24.89c-.13-.23-.25-.46-.4-.68-.5-.7-1.1-1.3-1.8-1.82-.7-.52-1.48-.92-2.34-1.21s-1.78-.43-2.74-.43c-1.66,0-3.16.42-4.5,1.26s-2.42,1.99-3.22,3.46c-.8,1.46-1.21,3.14-1.21,5.04s.39,3.54,1.17,5,1.84,2.62,3.19,3.46c1.34.84,2.87,1.26,4.57,1.26.96,0,1.87-.14,2.74-.43.86-.29,1.64-.7,2.34-1.22.7-.53,1.3-1.14,1.8-1.84.18-.25.32-.52.47-.78v3.91h1.8v-18.72h-1.73l-.14,3.74Zm-.74,9.71c-.64,1.19-1.5,2.12-2.59,2.81-1.09.68-2.32,1.03-3.69,1.03-1.44,0-2.71-.35-3.8-1.04-1.09-.7-1.94-1.64-2.56-2.84-.61-1.2-.92-2.56-.92-4.07s.31-2.9.94-4.09c.62-1.19,1.48-2.12,2.57-2.81,1.09-.68,2.35-1.03,3.76-1.03s2.63.34,3.73,1.03c1.09.68,1.95,1.62,2.57,2.81.62,1.19.94,2.55.94,4.09s-.32,2.93-.95,4.12Z"/>
      <polygon class="cls-2" points="118.33 21.15 111.27 37.05 104.83 21.15 102.74 21.15 110.62 39.87 111.85 39.87 120.34 21.15 118.33 21.15"/>
      <path class="cls-2" d="m135.53,23.26c-.72-.8-1.6-1.42-2.65-1.85-1.04-.43-2.21-.65-3.51-.65s-2.54.24-3.65.72c-1.12.48-2.07,1.16-2.86,2.03s-1.41,1.9-1.85,3.08c-.44,1.18-.67,2.47-.67,3.89,0,1.94.4,3.65,1.19,5.11.79,1.46,1.89,2.6,3.29,3.42,1.4.82,3.01,1.22,4.81,1.22,1.03,0,1.99-.13,2.88-.38s1.69-.59,2.41-1.01c.72-.42,1.34-.88,1.87-1.39l-.94-1.33c-1.18.96-2.23,1.58-3.17,1.87-.94.29-1.85.43-2.74.43-1.66,0-3.05-.33-4.19-.99s-2.01-1.6-2.61-2.81c-.56-1.13-.85-2.45-.89-3.94h15.32l.04-.97c.05-1.32-.11-2.53-.47-3.62s-.9-2.04-1.62-2.84Zm.29,5.78h-13.5c.12-1.13.4-2.12.84-2.95.61-1.15,1.45-2.03,2.52-2.63,1.07-.6,2.29-.9,3.65-.9,1.46,0,2.68.32,3.64.97.96.65,1.67,1.45,2.14,2.41s.7,1.92.7,2.88v.22Z"/>
      <path class="cls-2" d="m154.52,24.14c-.47-1.15-1.16-2-2.09-2.56-.92-.55-2.05-.83-3.37-.83-1.08,0-2.11.2-3.08.59-.97.4-1.81.92-2.5,1.58-.55.53-.96,1.09-1.25,1.7l-.16-3.48h-1.73v18.72h1.8v-11.45c0-.79.16-1.54.47-2.25.31-.71.76-1.34,1.33-1.89.58-.55,1.25-.99,2.02-1.31.77-.32,1.62-.49,2.56-.49,1.08,0,1.98.22,2.7.67s1.27,1.12,1.64,2.02c.37.9.56,2.05.56,3.44v11.27h1.8v-11.34c0-1.78-.23-3.24-.7-4.39Z"/>
    </g>
  </g>
</svg>