<svg width="580" height="654" viewBox="0 0 580 654" fill="none" xmlns="http://www.w3.org/2000/svg">
<path fill-rule="evenodd" clip-rule="evenodd" d="M270.091 485.164C249.874 501.078 227.581 525.84 214.608 546.811C201.565 567.887 196.676 585.411 188.588 614.449L187.278 619.125C186.545 621.723 185.812 624.138 185.007 626.423C217.786 621.435 248.242 602.58 266.934 572.105C285.06 542.546 288.432 508.093 279.116 477.324C276.43 479.991 273.461 482.523 270.094 485.175L270.091 485.164ZM174.385 615.519L175.684 610.847L175.696 610.802C184.101 580.656 189.178 562.449 203.219 539.76C217.148 517.251 240.149 491.683 261.813 474.642C266.617 470.866 270.423 467.555 273.832 463.216C264.562 442.599 249.214 424.449 228.487 411.743C207.597 398.934 184.258 393.496 161.517 394.698C160.892 397.009 160.366 399.417 159.85 402.044C154.48 429.085 142.119 461.165 128.372 483.798C114.512 506.608 100.579 519.397 77.4982 540.576L73.9275 543.849C68.5405 548.803 64.701 552.912 61.248 559.061C70.5177 579.678 85.8659 597.829 106.593 610.534C126.395 622.686 148.398 628.199 170.026 627.714C171.843 623.963 173.103 620.114 174.397 615.516L174.385 615.519ZM68.4436 530.693L64.8645 533.981L64.8844 533.963C61.2655 537.286 58.2343 540.365 55.5843 543.626C46.7558 513.207 50.2906 479.315 68.1602 450.181C86.3274 420.549 115.629 401.893 147.373 396.307C147.337 396.471 147.302 396.636 147.266 396.801C147.08 397.661 146.892 398.533 146.718 399.427C141.701 424.661 129.73 455.762 116.933 476.834C104.082 497.984 90.6963 510.269 68.5747 530.573L68.4436 530.693Z" fill="#F6B7CC"/>
<path d="M282.098 130.12C276.3 159.702 297.88 188.839 330.286 195.186C355.393 200.107 379.635 189.886 391.979 171.285L435.762 179.863C440.178 201.754 458.771 220.349 483.879 225.27C516.284 231.617 547.261 212.78 553.051 183.185C555.186 172.3 553.597 161.474 549.137 151.828C556.91 144.571 562.453 135.143 564.589 124.259C570.386 94.6763 548.807 65.5395 516.401 59.1923C491.294 54.2711 467.051 64.4922 454.708 83.0931L410.925 74.5152C406.509 52.6246 387.916 34.0295 362.808 29.1083C330.402 22.761 299.425 41.598 293.636 71.1937C291.5 82.0786 293.09 92.9044 297.55 102.551C289.777 109.807 284.234 119.235 282.098 130.12Z" fill="#F6B7CC"/>
<path d="M166.153 224.727C179.844 202.006 199.793 183.86 223.714 172.371C232.568 168.117 241.362 162.433 248.575 154.307C250.217 152.458 280.85 124.909 242.566 84.2131C205.43 44.7487 133.629 32.1442 84.2879 74.382L84.2541 74.3447C83.8291 74.7312 83.4184 75.1184 83.0077 75.5056C82.5902 75.8853 82.1592 76.2502 81.7342 76.6367L81.7681 76.674C75.346 82.8832 69.9196 89.6031 65.4239 96.7022C64.9691 97.4154 64.9828 98.3291 65.4486 99.0358L79.9192 121.16C80.8236 122.544 79.8939 124.397 78.2346 124.49L54.0322 125.845C53.1022 125.901 52.3018 126.533 52.066 127.442C41.9952 165.72 52.4686 207.728 76.6083 235.181C113.498 277.13 143.819 249.238 145.821 247.784C154.592 241.372 161.081 233.155 166.153 224.742L166.153 224.727ZM156.99 128.55L147.483 124.313L143.244 133.821C142.678 135.086 141.181 135.657 139.924 135.098L136.214 133.447C134.95 132.881 134.379 131.384 134.938 130.127L139.178 120.619L129.671 116.383C128.407 115.817 127.836 114.32 128.395 113.063L130.047 109.353C130.614 108.089 132.11 107.517 133.368 108.076L142.875 112.312L147.114 102.805C147.68 101.54 149.177 100.969 150.434 101.528L154.144 103.179C155.408 103.745 155.979 105.242 155.42 106.499L151.18 116.007L160.687 120.243C161.951 120.809 162.522 122.306 161.963 123.563L160.311 127.273C159.744 128.537 158.248 129.108 156.99 128.55Z" fill="#1D7874"/>
<path d="M527.797 544.539C511.34 527.078 478.983 511.813 419.934 513.472C361.107 515.119 331.917 530.855 314.167 550.311C314.033 550.456 313.91 550.613 313.787 550.77L285.879 586.948C284.608 588.595 284.174 590.747 284.742 592.742C291.131 615.134 350.894 631.195 423.156 629.177C495.429 627.149 554.2 607.76 559.34 585.042C559.797 583.014 559.239 580.884 557.879 579.315L527.808 544.539H527.797ZM419.777 559.781C376.427 560.991 341.015 552.563 340.692 540.952C340.369 529.342 375.256 518.941 418.607 517.719C461.957 516.509 497.369 524.937 497.692 536.548C498.016 548.159 463.128 558.559 419.777 559.781Z" fill="#FFCB77"/>
<rect x="369.497" y="244.348" width="180" height="248" rx="40" fill="#1D7874"/>
<path d="M210.414 231.027C212.377 229.011 215.616 229.011 217.579 231.027L352.523 369.61C355.608 372.778 353.363 378.098 348.94 378.098H79.0528C74.6303 378.098 72.3852 372.778 75.4706 369.61L210.414 231.027Z" fill="#FFCB77"/>
<g clip-path="url(#clip0_522_9368)">
<path d="M435.073 358.815C445.269 358.815 453.534 350.465 453.534 340.164C453.534 329.863 445.269 321.513 435.073 321.513C424.878 321.513 416.612 329.863 416.612 340.164C416.612 350.465 424.878 358.815 435.073 358.815Z" fill="#FBF7F5"/>
<path d="M409.958 389.689C420.153 389.689 428.419 381.339 428.419 371.038C428.419 360.738 420.153 352.387 409.958 352.387C399.762 352.387 391.497 360.738 391.497 371.038C391.497 381.339 399.762 389.689 409.958 389.689Z" fill="#FBF7F5"/>
<path d="M475.215 352.65C485.411 352.65 493.676 344.3 493.676 333.999C493.676 323.699 485.411 315.348 475.215 315.348C465.02 315.348 456.754 323.699 456.754 333.999C456.754 344.3 465.02 352.65 475.215 352.65Z" fill="#FBF7F5"/>
<path d="M507.036 377.466C517.231 377.466 525.497 369.116 525.497 358.815C525.497 348.514 517.231 340.164 507.036 340.164C496.84 340.164 488.575 348.514 488.575 358.815C488.575 369.116 496.84 377.466 507.036 377.466Z" fill="#FBF7F5"/>
<path d="M461.193 358.035C441.44 358.035 425.422 374.213 425.422 394.174C425.422 411.552 435.174 426.064 452.812 419.913C458.152 418.049 463.943 418.233 469.278 420.107C485.336 425.746 496.96 411.363 496.96 394.174C496.96 374.218 480.947 358.035 461.189 358.035H461.193Z" fill="#FBF7F5"/>
</g>
<defs>
<clipPath id="clip0_522_9368">
<rect width="134" height="106" fill="white" transform="translate(391.497 315.348)"/>
</clipPath>
</defs>
</svg>
