<svg width="15" height="15" viewBox="0 0 15 15" fill="none" xmlns="http://www.w3.org/2000/svg">
<path d="M7.15909 0C7.5 0.166667 8.18182 1.26667 8.18182 2C8.18182 2.73333 7.725 3 7.15909 3C6.59318 3 6.13636 2.9 6.13636 2.16667C6.13636 1.43333 6.81818 1 7.15909 0ZM11.9318 5.66667C13.6364 5.66667 15 7 15 8.66667C15 9.70667 14.4614 10.62 13.6364 11.16V15H1.36364V11.16C0.538636 10.62 0 9.70667 0 8.66667C0 7 1.36364 5.66667 3.06818 5.66667H6.13636V3.66667H8.18182V5.66667H11.9318ZM7.5 10.3333C7.95207 10.3333 8.38563 10.1577 8.7053 9.84518C9.02496 9.53262 9.20455 9.10869 9.20455 8.66667H10.2273C10.2273 9.10869 10.4069 9.53262 10.7265 9.84518C11.0462 10.1577 11.4797 10.3333 11.9318 10.3333C12.3839 10.3333 12.8174 10.1577 13.1371 9.84518C13.4568 9.53262 13.6364 9.10869 13.6364 8.66667C13.6364 8.22464 13.4568 7.80072 13.1371 7.48816C12.8174 7.17559 12.3839 7 11.9318 7H3.06818C2.61611 7 2.18255 7.17559 1.86289 7.48816C1.54322 7.80072 1.36364 8.22464 1.36364 8.66667C1.36364 9.10869 1.54322 9.53262 1.86289 9.84518C2.18255 10.1577 2.61611 10.3333 3.06818 10.3333C3.52026 10.3333 3.95381 10.1577 4.27348 9.84518C4.59314 9.53262 4.77273 9.10869 4.77273 8.66667H5.79545C5.79545 9.10869 5.97504 9.53262 6.2947 9.84518C6.61437 10.1577 7.04793 10.3333 7.5 10.3333Z" fill="#F6B7CC"/>
</svg>
