<svg width="15" height="15" viewBox="0 0 15 15" fill="none" xmlns="http://www.w3.org/2000/svg">
<path d="M10.9176 0V1.16636H12.9955L11.0272 3.15268C10.3237 2.62146 9.46634 2.33365 8.58476 2.33272C7.49417 2.33272 6.47589 2.76428 5.7049 3.53583C5.3238 3.91232 5.02123 4.36071 4.81474 4.85502C4.60826 5.34933 4.50196 5.87971 4.50202 6.4154C4.50207 6.9511 4.60847 7.48146 4.81506 7.97572C5.02165 8.46999 5.3243 8.91833 5.70548 9.29474C6.21287 9.80211 6.81707 10.1666 7.49125 10.3515C7.55774 10.3007 7.63239 10.2477 7.69187 10.1882C7.93633 9.93956 8.11197 9.63168 8.20159 9.29474C7.56667 9.21636 6.97633 8.92747 6.52488 8.4742C5.97434 7.92426 5.66874 7.19412 5.66874 6.41499C5.66874 5.63586 5.97492 4.90689 6.52605 4.35636C7.07543 3.80409 7.8056 3.49909 8.58476 3.49909C9.36392 3.49909 10.0935 3.80526 10.6435 4.35636C10.9156 4.62563 11.1315 4.94627 11.2787 5.29967C11.4258 5.65307 11.5013 6.03218 11.5008 6.41499C11.5008 6.91944 11.3579 7.3889 11.1182 7.81812C11.1742 8.11905 11.2092 8.43513 11.2092 8.74771C11.2092 9.03814 11.1847 9.32506 11.1363 9.60499C11.2529 9.50993 11.3567 9.40204 11.4646 9.29474C12.2356 8.52261 12.6672 7.50554 12.6672 6.41499C12.6672 5.52272 12.3733 4.67478 11.8472 3.97263L13.8336 2.00498V4.08227H15V0H10.9176ZM7.34545 4.81124C7.27897 4.86198 7.20432 4.91505 7.14483 4.97453C6.89289 5.22763 6.72842 5.53439 6.63511 5.86855C7.2708 5.9502 7.85109 6.22779 8.31182 6.6885C8.86295 7.23844 9.16913 7.96859 9.16913 8.74713C9.16913 9.52568 8.86295 10.2552 8.31182 10.8058C7.76128 11.3586 7.0311 11.6636 6.25194 11.6636C5.47278 11.6636 4.7432 11.3575 4.19323 10.8063C3.92091 10.5372 3.70486 10.2166 3.55767 9.86319C3.41049 9.50976 3.33511 9.13057 3.33593 8.74771C3.33593 8.24326 3.47881 7.7738 3.71851 7.34458C3.65995 7.03813 3.6295 6.72698 3.62753 6.41499C3.62753 6.12457 3.65202 5.83764 3.70043 5.55771C3.58379 5.65277 3.48056 5.76066 3.37208 5.86855C2.60226 6.63893 2.16952 7.65717 2.16952 8.74771C2.16952 9.63998 2.46345 10.4879 2.9895 11.1901L2.00622 12.1739L0.839813 11.0075L0 11.8275L1.16641 12.9939L0 14.1602L0.839813 15L2.00622 13.8336L3.17263 15L3.99203 14.1602L2.82562 12.9939L3.81007 12.0106C4.51292 12.5426 5.37042 12.8304 6.25194 12.83C7.34254 12.83 8.36081 12.3984 9.1318 11.6269C9.9028 10.8565 10.3344 9.83826 10.3344 8.74771C10.3344 7.65717 9.9028 6.6401 9.13122 5.86797C8.62383 5.3606 8.01963 4.99611 7.34545 4.81124Z" fill="#FFCB77"/>
</svg>
