<svg width="12" height="16" viewBox="0 0 12 16" fill="none" xmlns="http://www.w3.org/2000/svg">
<path d="M5.54167 7.52083C5.01676 7.52083 4.51335 7.31231 4.14218 6.94115C3.77102 6.56998 3.5625 6.06657 3.5625 5.54167C3.5625 5.01676 3.77102 4.51335 4.14218 4.14218C4.51335 3.77102 5.01676 3.5625 5.54167 3.5625C6.06657 3.5625 6.56998 3.77102 6.94115 4.14218C7.31231 4.51335 7.52083 5.01676 7.52083 5.54167C7.52083 5.80157 7.46964 6.05894 7.37018 6.29906C7.27072 6.53918 7.12493 6.75737 6.94115 6.94115C6.75737 7.12493 6.53919 7.27072 6.29906 7.37018C6.05894 7.46964 5.80157 7.52083 5.54167 7.52083ZM5.54167 0C4.07193 0 2.66238 0.583852 1.62312 1.62312C0.583852 2.66238 0 4.07193 0 5.54167C0 9.69792 5.54167 15.8333 5.54167 15.8333C5.54167 15.8333 11.0833 9.69792 11.0833 5.54167C11.0833 4.07193 10.4995 2.66238 9.46022 1.62312C8.42095 0.583852 7.01141 0 5.54167 0Z" fill="#1D7874"/>
</svg>
