<svg width="44" height="44" viewBox="0 0 44 44" fill="none" xmlns="http://www.w3.org/2000/svg">
<path d="M35.0167 19.5434C37.0535 21.9524 36.63 24.9004 36.63 27.5001C36.63 34.6611 26.9739 36.6667 22 36.6667C17.0262 36.6667 7.37003 34.6611 7.37003 27.5001C7.37003 24.9004 6.94653 21.9524 8.98336 19.5434M35.0167 19.5434C34.6592 19.1217 34.2284 18.7184 33.704 18.3334M35.0167 19.5434C36.3 20.2822 36.6282 17.5176 36.63 16.6137V13.1781C36.63 10.1989 34.5822 9.16675 32.8259 9.16675C31.0714 9.16675 27.5587 12.0322 26.389 12.0322C24.9847 12.0322 24.7134 11.7444 22 11.7444C19.2867 11.7444 19.0154 12.0322 17.611 12.0322C16.4414 12.0322 12.9287 9.16675 11.1742 9.16675C9.41786 9.16675 7.37003 10.1989 7.37003 13.1781V16.6156C7.3737 17.5176 7.70003 20.2822 8.98336 19.5434M8.98336 19.5434C9.34086 19.1217 9.7717 18.7184 10.296 18.3334" stroke="black" stroke-width="2.75" stroke-linecap="round"/>
<path d="M23.5144 29.3333C23.5144 29.6505 22.8526 29.9071 22.0349 29.9071C21.2191 29.9071 20.5573 29.6505 20.5573 29.3333C20.5573 29.0161 21.2191 28.7613 22.0349 28.7613C22.8526 28.7613 23.5144 29.018 23.5144 29.3333ZM28.4168 24.9223C28.4168 25.7125 28.0189 26.3541 27.5294 26.3541C27.0399 26.3541 26.6421 25.7125 26.6421 24.9223C26.6421 24.1303 27.0399 23.4905 27.5294 23.4905C28.0189 23.4905 28.4168 24.134 28.4168 24.9223ZM17.4168 24.9223C17.4168 25.7125 17.0189 26.3541 16.5294 26.3541C16.0399 26.3541 15.6421 25.7125 15.6421 24.9223C15.6421 24.1303 16.0399 23.4905 16.5294 23.4905C17.0189 23.4905 17.4168 24.134 17.4168 24.9223Z" stroke="black" stroke-width="2.75"/>
<path d="M40.3334 28.3599C39.4479 27.7861 35.6034 26.3542 34.1239 26.3542M37.3762 32.9432C36.4889 32.3694 34.4191 30.9376 32.9396 30.9376M3.66675 28.3599C4.55408 27.7861 8.39675 26.3542 9.87625 26.3542M6.62391 32.9432C7.51125 32.3694 9.58108 30.9376 11.0606 30.9376" stroke="black" stroke-width="2.75" stroke-linecap="round"/>
</svg>
