<svg width="32" height="34" viewBox="0 0 32 34" fill="none" xmlns="http://www.w3.org/2000/svg">
<path d="M10.4582 5.91659L8.87491 1.95825C7.15937 2.61771 3.49158 6.54992 4.12491 12.2499M21.5416 5.91659L23.1249 1.95825C24.8405 2.61771 28.5082 6.54992 27.8749 12.2499" stroke="#071E22" stroke-width="3.16667" stroke-linecap="round" stroke-linejoin="round"/>
<path d="M30.25 20.5625C30.25 28.214 23.87 32.0417 16 32.0417C8.13004 32.0417 1.75 28.214 1.75 20.5625C1.75 12.911 8.13004 5.125 16 5.125C23.87 5.125 30.25 12.911 30.25 20.5625Z" stroke="#071E22" stroke-width="3.16667"/>
<path d="M12.8333 13.0417C13.7078 13.0417 14.4167 12.3328 14.4167 11.4583C14.4167 10.5839 13.7078 9.875 12.8333 9.875C11.9589 9.875 11.25 10.5839 11.25 11.4583C11.25 12.3328 11.9589 13.0417 12.8333 13.0417Z" fill="#071E22"/>
<path d="M19.1666 13.0417C20.041 13.0417 20.7499 12.3328 20.7499 11.4583C20.7499 10.5839 20.041 9.875 19.1666 9.875C18.2921 9.875 17.5833 10.5839 17.5833 11.4583C17.5833 12.3328 18.2921 13.0417 19.1666 13.0417Z" fill="#071E22"/>
<path d="M16 18.5833C16 19.895 16.3958 22.9374 13.625 22.9374C12.9951 22.9374 12.391 22.6872 11.9456 22.2418C11.5002 21.7964 11.25 21.1923 11.25 20.5624" stroke="#071E22" stroke-width="3.16667" stroke-linecap="round" stroke-linejoin="round"/>
<path d="M16.0198 18.5833C16.0198 19.895 15.624 22.9374 18.3948 22.9374C19.0247 22.9374 19.6288 22.6872 20.0742 22.2418C20.5196 21.7964 20.7698 21.1923 20.7698 20.5624" stroke="#071E22" stroke-width="3.16667" stroke-linecap="round" stroke-linejoin="round"/>
<path d="M17.5834 18.3853C17.5834 18.9316 16.0001 19.7708 16.0001 19.7708C16.0001 19.7708 14.4167 18.9316 14.4167 18.3853C14.4167 17.8391 14.8126 17.3958 16.0001 17.3958C17.1876 17.3958 17.5834 17.8391 17.5834 18.3853Z" stroke="#071E22" stroke-width="3.16667" stroke-linejoin="round"/>
</svg>
