<svg width="31" height="29" viewBox="0 0 31 29" fill="none" xmlns="http://www.w3.org/2000/svg">
<path d="M23.4977 17.4655C23.007 15.6869 21.9465 14.1185 20.4787 13.0008C19.0108 11.883 17.2168 11.2777 15.3719 11.2777C13.527 11.2777 11.733 11.883 10.2651 13.0008C8.79733 14.1185 7.73676 15.6869 7.24614 17.4655L6.07698 21.7037C5.86706 22.4647 5.83574 23.2639 5.98547 24.0389C6.13519 24.814 6.46191 25.544 6.94015 26.1721C7.4184 26.8001 8.03524 27.3092 8.74258 27.6596C9.44992 28.0101 10.2286 28.1924 11.018 28.1924H19.7258C20.5152 28.1924 21.2939 28.0101 22.0012 27.6596C22.7086 27.3092 23.3254 26.8001 23.8036 26.1721C24.2819 25.544 24.6086 24.814 24.7583 24.0389C24.9081 23.2639 24.8767 22.4647 24.6668 21.7037L23.4977 17.4655ZM22.1726 24.9297C21.8869 25.3079 21.517 25.6144 21.0923 25.8248C20.6676 26.0353 20.1997 26.1439 19.7258 26.1422H11.018C10.5444 26.1422 10.0772 26.0328 9.65274 25.8225C9.22833 25.6122 8.85821 25.3068 8.57126 24.93C8.28431 24.5531 8.08828 24.1151 7.99845 23.6501C7.90861 23.185 7.92741 22.7055 8.05337 22.2489L9.22253 18.0107C9.59382 16.6648 10.3964 15.4778 11.5072 14.632C12.6181 13.7861 13.9757 13.328 15.3719 13.328C16.7681 13.328 18.1258 13.7861 19.2366 14.632C20.3474 15.4778 21.15 16.6648 21.5213 18.0107L22.6904 22.2489C22.8182 22.7053 22.8379 23.1852 22.748 23.6506C22.6582 24.1159 22.4611 24.554 22.1726 24.9299V24.9297ZM8.33054 12.7072C8.50891 11.5924 8.27236 10.3989 7.6642 9.34585C7.05604 8.29278 6.1406 7.4912 5.08619 7.08825C3.95701 6.657 2.80528 6.72568 1.84204 7.28156C-0.0728393 8.38716 -0.576755 11.112 0.718946 13.3558C1.32691 14.4088 2.24242 15.2106 3.29683 15.6134C3.76391 15.7954 4.26039 15.8903 4.76168 15.8934C5.3862 15.8957 6.00016 15.7323 6.54098 15.42C7.50364 14.8641 8.13922 13.9006 8.33054 12.7072ZM6.30591 12.3831C6.21428 12.9552 5.93366 13.4031 5.51572 13.6444C5.09779 13.8857 4.56959 13.9047 4.02819 13.698C3.41228 13.4628 2.86755 12.9772 2.49428 12.3306C1.77669 11.0877 1.94724 9.58842 2.86717 9.05715C3.09843 8.92591 3.36033 8.85831 3.62622 8.86122C3.87563 8.8638 4.12247 8.91194 4.35457 9.00326C4.97048 9.23859 5.51521 9.72419 5.88849 10.3707C6.26176 11.0173 6.40996 11.7321 6.30591 12.3831ZM8.55261 8.45975C9.28058 9.04171 10.1119 9.34476 10.9526 9.3447C11.2044 9.34462 11.4555 9.31753 11.7015 9.2639C13.8621 8.7942 15.1722 6.35234 14.6218 3.82059C14.3636 2.63233 13.7359 1.58984 12.8542 0.884999C11.9102 0.130247 10.7919 -0.155444 9.70537 0.0808485C7.54478 0.550486 6.23472 2.99235 6.78503 5.5241C7.04329 6.71242 7.67106 7.75491 8.55261 8.45975ZM10.1408 2.08434C10.2404 2.06286 10.3421 2.05212 10.444 2.0523C10.8251 2.0523 11.217 2.20139 11.574 2.48677C12.0889 2.89842 12.4598 3.52689 12.6183 4.25646C12.9233 5.65929 12.304 7.03508 11.266 7.26073C10.7944 7.36325 10.2854 7.2205 9.83293 6.85869C9.31799 6.44697 8.94709 5.8185 8.78858 5.08899C8.48354 3.68578 9.10285 2.30999 10.1408 2.08434ZM28.9018 7.28156C27.9389 6.72568 26.7866 6.657 25.6576 7.08825C24.6032 7.49107 23.6877 8.29278 23.0797 9.34585C22.4718 10.3989 22.2351 11.5926 22.4134 12.7072C22.6045 13.9006 23.2399 14.8641 24.203 15.42C24.7438 15.7324 25.3577 15.8957 25.9823 15.8934C26.4835 15.8903 26.98 15.7954 27.4471 15.6134C28.5015 15.2106 29.417 14.4088 30.025 13.3558C31.3206 11.112 30.8166 8.38716 28.9018 7.28156ZM28.2495 12.3306C27.8762 12.9772 27.3315 13.4628 26.7156 13.698C26.1745 13.9049 25.6461 13.8858 25.2282 13.6444C24.8103 13.403 24.5298 12.9552 24.438 12.3831C24.3338 11.7321 24.482 11.0175 24.8553 10.3713C25.2287 9.72508 25.7733 9.23917 26.3892 9.00384C26.6213 8.91243 26.8682 8.86421 27.1176 8.86154C27.3835 8.85863 27.6454 8.92623 27.8766 9.05747C28.7966 9.58829 28.9673 11.0874 28.2495 12.3306ZM19.0423 9.2639C19.2883 9.31753 19.5394 9.34462 19.7912 9.3447C20.6318 9.3447 21.4635 9.04171 22.1912 8.45975C23.0727 7.75497 23.7005 6.71242 23.9588 5.52416C24.5091 2.99241 23.199 0.55055 21.0384 0.0809125C19.952 -0.155252 18.8336 0.130247 17.8896 0.885063C17.0079 1.58984 16.3802 2.6324 16.122 3.82059C15.5716 6.35234 16.8817 8.7942 19.0423 9.2639ZM18.1255 4.25614C18.284 3.52657 18.6549 2.89784 19.1698 2.48645C19.5268 2.20107 19.9187 2.05198 20.2998 2.05198C20.4017 2.0518 20.5034 2.06254 20.603 2.08402C21.641 2.30967 22.2603 3.68578 21.9554 5.08829C21.7967 5.81786 21.4258 6.44659 20.911 6.85805C20.4586 7.21979 19.9499 7.36254 19.4779 7.26009C18.4398 7.03476 17.8205 5.65878 18.1255 4.25614Z" fill="black"/>
</svg>
